<mxfile host="Electron" modified="2024-08-19T15:13:47.691Z" agent="Mozilla/5.0 (Windows NT 10.0; Win64; x64) AppleWebKit/537.36 (KHTML, like Gecko) draw.io/22.1.16 Chrome/120.0.6099.109 Electron/28.1.0 Safari/537.36" etag="5Q03nlTxN_OXfKGXz2X3" version="22.1.16" type="device">
  <diagram name="Page-1" id="4J-mOBrImROQh0QMu6N8">
    <mxGraphModel dx="915" dy="783" grid="1" gridSize="10" guides="1" tooltips="1" connect="1" arrows="1" fold="1" page="1" pageScale="1" pageWidth="800" pageHeight="270" math="0" shadow="0">
      <root>
        <mxCell id="0" />
        <mxCell id="1" parent="0" />
        <mxCell id="7upIJ7KYZOERCpWqS2DW-2" value="GA GA GA&lt;br&gt;" style="whiteSpace=wrap;html=1;shape=mxgraph.basic.cloud_callout;flipV=0;flipH=1;verticalAlign=middle;horizontal=1;spacingBottom=16;" parent="1" vertex="1">
          <mxGeometry x="60" y="20" width="120" height="90" as="geometry" />
        </mxCell>
        <mxCell id="7upIJ7KYZOERCpWqS2DW-3" value="MEU MEU" style="whiteSpace=wrap;html=1;shape=mxgraph.basic.cloud_callout;flipV=0;flipH=0;verticalAlign=middle;horizontal=1;spacingBottom=16;" parent="1" vertex="1">
          <mxGeometry x="620" y="30" width="120" height="90" as="geometry" />
        </mxCell>
        <mxCell id="rp7TiscSRuoBrP3z84iZ-2" value="" style="shape=image;imageAspect=0;aspect=fixed;verticalLabelPosition=bottom;verticalAlign=top;image=data:image/svg+xml,PHN2ZyB4bWxuczp4bGluaz0iaHR0cDovL3d3dy53My5vcmcvMTk5OS94bGluayIgeG1sbnM9Imh0dHA6Ly93d3cudzMub3JnLzIwMDAvc3ZnIiB4bWw6c3BhY2U9InByZXNlcnZlIiBzdHlsZT0iZW5hYmxlLWJhY2tncm91bmQ6bmV3IDAgMCA5NDkuNSA1NjYuMjsiIHZpZXdCb3g9IjAgMCA5NDkuNSA1NjYuMiIgeT0iMHB4IiB4PSIwcHgiIGlkPSJMYXllcl8xIiB2ZXJzaW9uPSIxLjEiPiYjeGE7PHN0eWxlIHR5cGU9InRleHQvY3NzIj4mI3hhOwkuc3Qwe3N0cm9rZTojMDAwMDAwO3N0cm9rZS1taXRlcmxpbWl0OjEwO30mI3hhOwkuc3Qxe2ZpbGw6I0ZGRDk2Njt9JiN4YTsJLnN0MntmaWxsOiNCNTczOUQ7fSYjeGE7CS5zdDN7ZmlsbDojQzc4QTVFO30mI3hhOwkuc3Q0e2ZpbGw6IzIzMUYyMDt9JiN4YTsJLnN0NXtmaWxsOiNGOEQwMzM7fSYjeGE7CS5zdDZ7ZmlsbDojMkQyRDJEO30mI3hhOwkuc3Q3e2ZpbGw6I0U5ODk0MDt9JiN4YTsJLnN0OHtmaWxsOiNGRkI1NzA7fSYjeGE7CS5zdDl7ZmlsbDojRjE5Qzk5O30mI3hhOzwvc3R5bGU+JiN4YTs8cGF0aCBkPSJNMTkxLjUsNTY2LjJjMC0wLjUsMC0xLDAtMS41YzUuOC0wLjgsMTEuNS0zLjIsMTcuNC0xYzAuNywwLjMsMSwxLjcsMS41LDIuNUwxOTEuNSw1NjYuMnoiIGNsYXNzPSJzdDAiLz4mI3hhOzxwYXRoIGQ9Ik0xNjIuNSw1NjYuMmMtMC4xLTAuMy0wLjItMC42LTAuNC0wLjhjNC42LTAuMyw5LjMtMC42LDEzLjktMC44YzAuMSwwLDAuMywxLjEsMC40LDEuN0wxNjIuNSw1NjYuMnoiIGNsYXNzPSJzdDAiLz4mI3hhOzxwYXRoIGQ9Ik0zMDQuNCw1NDAuNGMtMTEtNi44LTIzLjQtOS0zNi4xLTEwLjJ2LTEuMWMyLjUsMCw0LjksMCw3LjQsMGMyLjcsMCw1LjUtMC4zLDgsMC40YzYuNCwxLjgsMTIuNiw0LDE4LjksNi4xJiMxMDsmIzk7YzAuOCwwLjMsMS40LDEuMywyLDJDMzA0LjUsNTM4LjYsMzA0LjQsNTM5LjUsMzA0LjQsNTQwLjR6IiBjbGFzcz0ic3QwIi8+JiN4YTs8cGF0aCBkPSJNMjMwLjcsNTQ4LjJsMS43LDEuOGwtMTcuMSw2LjFsLTAuNi0xLjZDMjE5LjgsNTUxLjcsMjI0LjgsNTQ4LjksMjMwLjcsNTQ4LjJ6IiBjbGFzcz0ic3QwIi8+JiN4YTs8cGF0aCBkPSJNMjU2LjUsNTU3LjFjLTEuNiwwLjgtMy4yLDEuOS00LjksMi4zYy00LjQsMS4xLTguOSwxLjktMTMuNSwyLjJDMjQ0LDU1OS4xLDI0OS44LDU1NiwyNTYuNSw1NTcuMUwyNTYuNSw1NTcuMSYjMTA7JiM5O3oiIGNsYXNzPSJzdDAiLz4mI3hhOzxwYXRoIGQ9Ik0zMDcuNiw1NDIuOWMtMC4zLTAuNy0wLjYtMS41LTAuOS0yLjJsMi4zLDAuOUwzMDcuNiw1NDIuOXoiIGNsYXNzPSJzdDAiLz4mI3hhOzxwYXRoIGQ9Ik0zMDQuNCw1NDAuNGMwLTAuOSwwLjEtMS44LDAuMS0yLjhsMS43LDIuMUwzMDQuNCw1NDAuNHoiIGNsYXNzPSJzdDAiLz4mI3hhOzxwb2x5Z29uIHBvaW50cz0iMjM5LjIsNTQ1LjYgMjM5LDU0NS45IDIzOC44LDU0NS43IDIzOC45LDU0NS40IiBjbGFzcz0ic3QwIi8+JiN4YTs8cGF0aCBkPSJNODAwLjEsMzcyLjJjMS4xLDAuOSwyLjIsMS44LDMuMiwyLjhjMy44LDQuNyw3LDUuNywxMS44LDIuOWMyLjUtMS43LDUuOC0xLjksOC41LTAuNWM0LjIsMiw4LjIsNC4yLDEyLjQsNi40JiMxMDsmIzk7bC0wLjQsMS40Yy0zLjksMS4yLTcuNywyLjUtMTEuNiwzLjRjLTI3LjMsNi40LTU0LjgsMTAuOS04Myw5LjJjLTI3LjYtMS43LTU0LjQtNy03OS4zLTE5LjVjLTI0LjEtMTIuMi00NS4yLTI4LTU4LjctNTIuMSYjMTA7JiM5O2MtMy40LTYuMS01LjUtMTMtOC4zLTE5LjljNi41LTAuMiw4LjEsMC44LDEwLjEsNS4zYzMuNSw4LjMsMTIuMywxMS45LDIyLjYsOC43YzAuMyw1LjYsMi41LDEwLjMsNy42LDEzYzYuMSwzLjEsOS40LTEuOCwxMy45LTUuNSYjMTA7JiM5O2MwLjIsMy4zLDAuNCw1LjgsMC41LDguNGMwLjMsNi4yLDQuMSwxMC4xLDksMTNzMTAsMS4xLDEyLjgtMy44YzEuNy0yLjcsMy4xLTUuNSw0LjItOC41YzEuMy0zLjksMy44LTQuMSw3LTMuMSYjMTA7JiM5O2M2LjUsMiwxMyw0LDE5LjUsNS45YzEzLjIsNCwyNi40LDcuOCwzOS42LDExLjhjOS42LDIuOSwxOS4yLDYsMjguOCw5YzIuOCwwLjksMy43LDIuMiwyLjEsNS4xYy0xLjYsMi45LTIuNyw2LTMuMyw5LjMmIzEwOyYjOTtjLTAuOSw1LjEsMi42LDksNy44LDkuMmM2LjYsMC4zLDExLjUtMy43LDE2LjctNi45Qzc5NS44LDM3NS43LDc5OCwzNzQsODAwLjEsMzcyLjJ6IiBjbGFzcz0ic3QxIi8+JiN4YTs8cGF0aCBkPSJNNDE4LDU1N2MxLjgtMy45LDIuMS03LjUsNi40LThjMC45LTAuMywxLjctMC45LDIuMS0xLjhjMi40LTcsNS42LTEzLjksNi43LTIxLjFjMC43LTQuOC0xLjQtMTAtMi43LTE1JiMxMDsmIzk7Yy0wLjktMi43LTItNS4zLTMuMy03LjdjLTEuNi0zLjQsMC4xLTUuMywyLjktNi44YzAuMy0wLjEsMC43LTAuMiwxLTAuM2M5LjEtMy40LDkuNC00LDYuNC0xMy40Yy0wLjgtMi4yLTEuNC00LjQtMS44LTYuNyYjMTA7JiM5O2MtMS4yLTcuMS0xLjItNy4yLDUuNS05YzIuMS0wLjYsNC4yLTAuOSw2LjQtMC45YzktMC4xLDE4LDAsMjctMC4zYzcuNS0wLjIsMTQuOS0xLDIyLjQtMS40YzUuNC0wLjMsMTAuOS0wLjQsMTYuMy0wLjQmIzEwOyYjOTtjNS45LDAsNy45LDIuNyw3LjIsOC42Yy0wLjksNi42LTEuNSwxMy4yLTEuNywxOS44Yy0wLjEsOC4xLDEuNyw5LjUsOS43LDkuNmMxLjgsMCwzLjYsMCw2LjIsMGMtMC40LDMuOC0wLjUsNy4yLTEuMywxMC41JiMxMDsmIzk7Yy0zLjEsMTQuMiwyLDI2LjMsOS43LDM3LjhjMS44LDIuNywzLjIsNS42LDUuMSw4LjhjLTguNSwyLjctMTYuNCwxLjUtMjQuMiwxLjRjLTEyLjEtMC4yLTI0LjIsMC0zNi4zLDAuMSYjMTA7JiM5O2MtOC44LDAtMTcuNiwwLjItMjYuNSwwLjFjLTUuOC0wLjEtMTEuNi0wLjQtMTcuNC0wLjlDNDM1LjMsNTU5LjIsNDI3LDU1OC4xLDQxOCw1NTd6IE00NzQuOSw1NDYuMmM4LjctMC4xLDE3LjItMi40LDI0LjctNi45JiMxMDsmIzk7YzcuNC00LjMsMTEuOS0xNy40LDguMy0yNS42Yy00LjItOS43LTEwLjQtMTYuNS0yMC4yLTIwLjFjLTUuNy0yLTExLjgtMi4yLTE3LjYtMC43Yy02LjIsMS40LTExLjcsNC4xLTE1LjksOSYjMTA7JiM5O2MtNS4xLDYtOC45LDEyLjgtOS40LDIwLjhjLTAuMyw1LDAuMiwxMC40LDQuNywxNEM0NTcuNSw1NDIuOSw0NjYuMSw1NDcuNCw0NzQuOSw1NDYuMkw0NzQuOSw1NDYuMnoiIGNsYXNzPSJzdDIiLz4mI3hhOzxwYXRoIGQ9Ik04MDEuOSwxMzcuOWwtNS41LDQuOWwwLjgsMS4yYzItMS4yLDQuMS0yLjIsNS45LTMuNmMzLjgtMi44LDcuNy00LjQsMTIuMi0xLjRsLTIxLjIsNy44JiMxMDsmIzk7YzAuMy0wLjUsMC43LTEuMywwLjgtMS41Yy0yLTEuNi0zLjgtMy40LTUuNS01LjJjLTEuNi0yLjEtMS4xLTMuOCwxLjgtNGMzLjQtMC4xLDYuOCwwLDEwLjIsMEw4MDEuOSwxMzcuOXoiIGNsYXNzPSJzdDEiLz4mI3hhOzxwYXRoIGQ9Ik03MTAuNywyNjQuNmMwLjUsMy45LDEuMyw3LjcsMS41LDExLjVjMC41LDEwLjYsMC44LDIxLjEsMS4yLDMxLjdjLTAuNS00LjktMS05LjgtMS4zLTE0LjYmIzEwOyYjOTtDNzExLjUsMjgzLjcsNzExLjEsMjc0LjEsNzEwLjcsMjY0LjZ6IiBjbGFzcz0ic3QzIi8+JiN4YTs8cGF0aCBkPSJNMzA5LDUuOWwtMjQuNC0wLjVjMi4yLTAuNSw0LjQtMC44LDYuNi0xYzQuNS0wLjEsOC45LDAsMTMuNCwwLjJDMzA2LjEsNC43LDMwNy41LDUuNSwzMDksNS45eiIgY2xhc3M9InN0MyIvPiYjeGE7PHBhdGggZD0iTTQyNSw1MzBsLTYuOSwwLjJsLTAuMy0xLjhsNy0xLjJMNDI1LDUzMHoiIGNsYXNzPSJzdDQiLz4mI3hhOzxwYXRoIGQ9Ik0zMjIuMSw2LjhjLTMuMiwwLTYuNywxLjgtOS42LTFMMzIyLjEsNi44eiIgY2xhc3M9InN0MyIvPiYjeGE7PHBhdGggZD0iTTcyNS4xLDE0My4ybC0wLjctMS41Yy02LjEsMS45LTEyLjMsMy42LTE4LjMsNS45Yy0xLjIsMC40LTIuMywyLjgtMi4zLDQuM2MwLDUsMC42LDEwLDAuOSwxNS4xJiMxMDsmIzk7QzcwOC42LDE1Ni45LDcxNS44LDE0OC41LDcyNS4xLDE0My4yeiIgY2xhc3M9InN0MSIvPiYjeGE7PHBhdGggZD0iTTc0MC41LDIwNi4yTDc0MC41LDIwNi4yTDc0MC41LDIwNi4yTDc0MC41LDIwNi4yeiIgY2xhc3M9InN0NSIvPiYjeGE7PHBhdGggZD0iTTcwNi43LDE4Mi4xYy0xLjcsNy40LTAuNiwxNC43LDAuNywyMS45bDAuMiwyLjVjLTAuMSwxLjUtMC4yLDMtMC4yLDQuNWMwLjcsMTUuNCwxLjUsMzAuOSwyLjMsNDYuMyYjMTA7JiM5O2MwLjIsMC45LDAuNCwxLjksMC44LDIuOGwwLjMsNC42YzAuNSwzLjksMS4zLDcuNywxLjUsMTEuNWMwLjUsMTAuNiwwLjgsMjEuMSwxLjIsMzEuN2MwLjMsMy41LDAuNyw3LjEsMS4xLDExLjUmIzEwOyYjOTtjMS42LTAuOSwzLjEtMiw0LjUtMy4yYzEuNy0xLjYsMi45LTMuNiw0LjYtNS4yYzguOC04LjYsMTcuNS0xNy4zLDI2LjYtMjUuN2MxMS44LTEwLjgsMjMuNS0yMS42LDM1LjgtMzEuNiYjMTA7JiM5O2MyMC4xLTE2LjMsNDAuMy0zMi40LDU4LjUtNTAuOGwyMS0xOS41YzAuOC0xLDEuNy0yLDIuNy0yLjhjNi00LjksMTItOS45LDE4LjEtMTQuN2MxLTAuNiwyLTEuMSwzLjEtMS40JiMxMDsmIzk7Yy00LjYtNi4yLTguNS0xMC4zLTE1LjEtMTAuMmMtMS42LDAtMy4zLTEuNS01LTIuMmMtMS4yLTAuNS0yLjUtMC45LTMuNy0xLjNsLTkuNS0zLjZsLTAuNSwxLjFsOC41LDdjMy45LDcsNC4zLDE0LjEsMC42LDIxLjQmIzEwOyYjOTtjLTAuMiwwLjYtMC40LDEuMy0wLjUsMS45djAuNGwtMC4zLDAuMmMtMC4yLDAuMi0wLjQsMC40LTAuNCwwLjdjLTIuMywyLjgtNC40LDUuNi02LjgsOC4yYy01LjYsNi4xLTEzLDkuNS0yMC4xLDEzLjJsLTIuNCwwLjcmIzEwOyYjOTtsLTAuMiwwLjJsLTAuMy0wLjFjLTYuOCwwLjctMTMuNiwyLjQtMjAuMiwxLjhjLTExLjMtMS0yMS44LTQuNy0yOC40LTE1LjFjLTEuNS0yLjQtMy4xLTIuNS01LjMtMC43Yy02LjcsNS4zLTE0LjUsOC0yMi44LDkuNiYjMTA7JiM5O2wtMi4zLDAuM2wtMi43LDAuNGMtNC4yLTAuMS04LjQtMC4yLTEyLjctMC4yYy0wLjQsMC0wLjgsMS4yLTEuMiwxLjljMC44LDIuMSwxLjUsNC4xLDIuMiw2LjFjMi4zLDEuNiwzLjUsNC4zLDcsNC41JiMxMDsmIzk7YzIuOCwwLjEsMi42LDMuOS0wLjQsNi41Yy0yLjUtMC43LTUuNC0wLjYtNC4xLTVjMC41LTEuNi0xLjYtNC0yLjUtNmMtMS4zLTEuNS0yLjctMi45LTQtNC40cy0yLjQtNC4xLTQtNC42JiMxMDsmIzk7QzcyMi45LDE5NCw3MTQuMSwxODkuOCw3MDYuNywxODIuMXoiIGNsYXNzPSJzdDEiLz4mI3hhOzxwYXRoIGQ9Ik05MzcsMjIzLjhjLTYuNS0yMS41LTE4LjktMzguNi0zNi4yLTUyLjRjLTYuNy01LjMtNi45LTUuMi0xMy4zLDAuM2MtMTUuMiwxMy4yLTMwLjIsMjYuNi00NS41LDM5LjcmIzEwOyYjOTtjLTE5LjgsMTctNDAuMiwzMy4zLTU5LjYsNTAuOGMtMTksMTcuMS0zNy4yLDM1LjEtNTUuNiw1Mi44Yy0zLjUsMy4zLTYuMyw3LjMtOS44LDEwLjVjLTEuNiwxLjQtMy42LDItNS43LDEuOSYjMTA7JiM5O2MtMC45LTAuMS0xLjctMy4yLTEuOS01Yy0wLjMtMi41LDAtNS0wLjItNy41Yy0xLjYtMjIuNi0zLjItNDUuMi00LjgtNjcuOGMtMS43LTI1LjEtMy4zLTUwLjItNS03NS4zYy0wLjQtNi42LTEtMTMuMS0xLjYtMjAuMyYjMTA7JiM5O2MtMi43LDEtNC45LDEuNy03LDIuNmMtMjMuOCwxMC40LTQ0LjIsMjUuOC02MS45LDQ0LjVjLTE3LjIsMTgtMzIuNiwzNy40LTM1LDYzLjhjLTEsMTAuNi0xLjcsMjEuMS0wLjcsMzEuOWw5LjYsMi44JiMxMDsmIzk7YzMuNS0xMywxOS4zLTI5LjUsMjcuOS0yOS4yYy0wLjMsMC45LTAuOCwxLjgtMS40LDIuNWMtMy41LDMuMS02LjksNi4zLTEwLjUsOS4yYy02LjcsNS40LTkuNCwxMi44LTEwLjMsMjAuOSYjMTA7JiM5O2MtMC43LDUuOCwxLjYsMTAuOCw2LjMsMTQuNWM0LjUsMy42LDcuOSwzLDEwLjEtMi4zYzEuNy00LjMsMy4yLTguNyw0LjUtMTMuMmMwLjktMy4xLDMuMi00LDUuNy0zLjRjMC45LDAuMiwxLjMsMy4yLDEuNCw1JiMxMDsmIzk7YzAsMS40LTEuMSwyLjgtMS4yLDQuM2MtMC42LDUuNi0xLjMsMTEuMi0xLjMsMTYuN2MwLDMsMS42LDYsNS4xLDYuNnM1LTIuMiw2LjQtNC42YzQuNS03LjgsOC41LTE1LjgsMTAuMS0yNC45JiMxMDsmIzk7YzAuOC00LjQsMy4xLTcsNS4yLTZjMy41LDEuOCwxLjEsNC42LDAuNiw3Yy0yLjIsOS45LTQuNywxOS43LTYuMywyOS43Yy0wLjUsMy44LDAsNy42LDEuNSwxMS4xYzIuMiw1LjUsOCw1LjgsMTAuNywwLjcmIzEwOyYjOTtjNC4yLTcuOCw3LjQtMTUuOSw3LjYtMjVjMC4zLTEwLjItMC43LTIwLjMtMy4yLTMwLjJjLTAuOC0zLjQtMS41LTYuOC0yLjMtMTAuN2M1LjYsMS4yLDYuNSw1LjEsNy41LDguN2MzLjEsMTEsNC43LDIyLjEsMy44LDMzLjYmIzEwOyYjOTtjLTAuMiwzLjIsMC44LDQuOSwzLjksNS44YzEwLjcsMy4xLDIxLjMsNi40LDMyLDkuNmMyMCw2LjEsNDAuMSwxMi4xLDYwLjEsMTguM2MxLjgsMC44LDQsMC4zLDUuMy0xLjJjNC42LTQuNSw5LjUtOC44LDE0LjUtMTIuOCYjMTA7JiM5O2M3LjEtNS41LDE0LjUtMTAuNSwyMS45LTE1LjZjMi4yLTEuNSw0LjYtMi44LDcuNywxLjJjLTEuMSwwLjctMi4zLDEuMy0zLjQsMmMtNyw0LjctMTQuMiw5LjItMjEuMSwxNC4xJiMxMDsmIzk7Yy05LjgsNi44LTE4LjEsMTUuMi0yMy44LDI1LjhjLTIuNSw0LjUtNC4zLDkuMy0yLjEsMTQuN2M0LjcsMC40LDguMi0xLjUsMTEuNS00LjNjMTEuNS05LjksMjEuNC0yMS41LDI5LjMtMzQuNCYjMTA7JiM5O2MxLjYtMi41LDMuMi0yLjksNi4zLTIuMWMtMC40LDEuNy0wLjUsMy4zLTEuMiw0LjZjLTIuMyw0LjItNS4xLDguMi03LjMsMTIuNWMtMi4yLDQuMy00LjEsOC43LTUuNSwxMy4zYy0xLDMuNCwxLjMsNSw0LjYsMy42JiMxMDsmIzk7YzIuMi0wLjksNC4xLTIuMiw1LjctMy45YzUuMS01LjksOS45LTEyLDE0LjctMTguMWMxLjItMS42LDItMy44LDQuNi0yLjVjMi45LDEuNSwxLDMuMywwLjIsNWMtMi4yLDQuNi00LjQsOS4zLTYuNSwxNCYjMTA7JiM5O2MtMS40LDMuMi0xLjcsNi41LDEuMyw5LjJzNiwwLjksOC44LTAuNGM4LTMuOCwxNC42LTEwLjEsMTguOC0xOGMxLjgtMy4zLDMuOC02LjQsNS43LTkuN2wxLjYsMC4yYzAuMiwxLjMsMSwyLjgsMC43LDQmIzEwOyYjOTtjLTAuOCwyLjctMiw1LjItMy42LDcuNWMtMy44LDQuOC04LDkuMi0xMi4yLDEzLjljMy4xLDIuMyw2LjYsMy41LDEwLjQsMS42YzkuNS00LjYsMTkuMy05LDI4LjMtMTQuNWMxMy45LTguNCwyNC43LTIwLjEsMzIuNy0zNC4zJiMxMDsmIzk7YzcuNy0xMy43LDExLjgtMjguNSwxNC42LTQzLjhDOTQyLjgsMjYzLjUsOTQzLDI0My42LDkzNywyMjMuOHoiIGNsYXNzPSJzdDEiLz4mI3hhOzxwYXRoIGQ9Ik0yODAuMiwxNzEuOGwzLjctMC4zYzAsMC41LDAsMSwwLDEuNWwtMy43LTAuNEMyODAsMTcyLjMsMjgwLDE3MiwyODAuMiwxNzEuOHoiIGNsYXNzPSJzdDMiLz4mI3hhOzxwYXRoIGQ9Ik00MjUuOCw1MjAuN2MtMC4xLTEtMC4xLTEuOS0wLjItMi45QzQyNS42LDUxOC44LDQyNS43LDUxOS43LDQyNS44LDUyMC43eiIgY2xhc3M9InN0MyIvPiYjeGE7PHBhdGggZD0iTTc1Ny4xLDE5Ny42bC0yLjMsMC4zTDc1Ny4xLDE5Ny42eiIgY2xhc3M9InN0MyIvPiYjeGE7PHBhdGggZD0iTTQwOC45LDU0NS42TDQwOC45LDU0NS42eiIgY2xhc3M9InN0MyIvPiYjeGE7PHBhdGggZD0iTTMzNy4yLDIzMy40bC0wLjMsMC4xYzAtMC4xLTAuMS0wLjMtMC4xLTAuNGMwLTAuMSwwLjItMC4xLDAuMy0wLjFMMzM3LjIsMjMzLjR6IiBjbGFzcz0ic3QzIi8+JiN4YTs8cGF0aCBkPSJNMjU2LjYsNTU3LjJsMC4xLTAuMUwyNTYuNiw1NTcuMkwyNTYuNiw1NTcuMnoiIGNsYXNzPSJzdDAiLz4mI3hhOzxwYXRoIGQ9Ik0zMzIuNywyMjUuM0wzMzIuNywyMjUuM0wzMzIuNywyMjUuM3oiIGNsYXNzPSJzdDQiLz4mI3hhOzxwYXRoIGQ9Ik05MTYuNSwzNDkuNGM5LTkuOCwxNi4yLTIxLjEsMjEuMi0zMy41YzkuNC0yMi4zLDE0LjEtNDUuMiwxMC42LTY5LjZjLTIuNy0xOC40LTYuMi0zNi40LTE3LjYtNTEuOCYjMTA7JiM5O2MtMTAuNS0xNC4zLTIyLjYtMjYuOS0zOS4yLTM0LjJjLTItMC43LTMuOS0xLjctNS43LTNjLTMuOS0zLjQtOC41LTYtMTMuMy03LjljLTQuNi0xLjctOS4yLTMuNC0xNC00LjdjLTEwLjUtMy0yMS02LTMxLjYtOC43JiMxMDsmIzk7Yy00LjItMS4xLTguNS0xLjUtMTMuOC0yLjNjMi4zLTIuMSwzLjgtMy4zLDUuMy00LjdjNi40LTYuMSwxMi43LTEyLjMsMTQuOS0yMS4zYzAuMy0xLjgsMC41LTMuNiwwLjgtNS40Yy0wLjItMC44LTAuNC0xLjctMC43LTIuNiYjMTA7JiM5O2MwLjEtMC41LDAuMi0xLDAuNC0xLjVjMC4zLTEuOCwwLjUtMy43LDAuOC01LjVjLTAuMy0wLjMtMC43LTAuNy0xLTEuMWwtNC40LTEuMmwtMS41LDAuMWgtMi42bC0yLjEtMS4xbC0zLjgtMC43bC05LjctMi4yJiMxMDsmIzk7bC0wLjQsMS43bDkuMSwyLjRsMi43LDAuOGMwLjIsMC44LDAuNCwxLjcsMC42LDIuNmMtMiwzLTAuNyw0LjYsMi4zLDUuN2MyLDEuNyw2LjItMC4yLDYuOCw0bC0wLjUsMi43Yy0wLjEsMC41LTAuMywwLjktMC40LDEuNCYjMTA7JiM5O2MtMy45LDEwLjYtMTIsMTcuOC0yMC42LDI0LjRjLTEsMC44LTIuOCwwLjktNC4yLDAuOWMtNC43LDAtOS4zLDAtMTQtMC40Yy0xLjctMC4yLTMuMy0xLjEtNC40LTIuNGMtNi4xLTkuNC0xNS41LTE0LjQtMjUuMy0xOC43JiMxMDsmIzk7Yy00LjQtMS45LTktMy42LTE0LTEuNmMwLjQsNS45LDQuNyw5LjEsOC4zLDUuOGMyLjctMi41LDQuOC0xLjcsNy4xLTAuNmMzLjIsMS41LDYuMiwzLjIsOS4xLDUuMWM0LjMsMyw4LjUsNi4yLDExLDExLjYmIzEwOyYjOTtjLTEuMiwwLjQtMi4zLDAuNy0zLjUsMC45Yy05LjMsMC40LTE4LjYsMC42LTI3LjksMS4xYy0xOC43LDEuMS0zNyw0LjgtNTQuMywxMmMtMzIsMTMuNC02MC4yLDMyLjUtODMuNSw1OC40JiMxMDsmIzk7Yy0xNy45LDE5LjktMjcuNSw0My4zLTI3LjksNzAuMmMtMC4xLDUuNSwwLDEwLjksMCwxNi42Yy0xLjMsMC0yLjYtMC4yLTMuOC0wLjRjLTEzLjUtNC41LTI3LTkuMy00MC43LTEzLjZjLTQtMS4yLTQuOC0yLjktNC4zLTYuOCYjMTA7JiM5O2MxLjctMTIuNy00LjMtMjEuMi0xNS4yLTI3LjFjLTYuNi0zLjUtMTQtNS40LTIxLjUtNS41Yy0xNy4yLTAuNC0zMS40LDQuOS00MCwyMC44Yy0xLjUsMi44LTMuMiwyLjctNS43LDEuOSYjMTA7JiM5O2MtMTIuNC00LjItMjQuOS04LjItMzcuNC0xMi40Yy02LjQtMi4xLTEyLjgtNC4zLTIwLjEtNi44YzEuOC0xLjYsMi45LTIuNSw0LTMuNGMxNy4xLTEzLjgsMzMuOS0yNy45LDQ3LjEtNDUuOCYjMTA7JiM5O2MxMS0xNC45LDE3LjktMzEuNCwxNy45LTUwLjRjMC0xMS4yLTIuOS0yMS43LTcuMS0zMS45Yy03LTE3LjItMTUuNi0zMy40LTI4LjItNDcuM2MtMTMuNS0xNS0yOS4zLTI3LTQ2LTM4JiMxMDsmIzk7QzM1OS44LDguMywzMzIuOS0wLjQsMzAzLjEsMGMtMTcuNSwwLjMtMzUsMS4yLTUyLjEsNS4yYy0xOSw0LjMtMzYuNCwxMi41LTUzLDIyLjVjLTEzLjIsNy45LTI1LjcsMTYuNy0zNi42LDI3LjUmIzEwOyYjOTtjLTExLjgsMTEuOS0yMy4xLDI0LjItMzQuOCwzNi4yYy0xLjMsMS41LTMsMi42LTQuOCwzLjNjLTQuNCwxLjQtOSwyLjMtMTMuNCwzLjRjLTE5LjUsNS0zOC41LDExLjQtNTYuNCwyMC44JiMxMDsmIzk7Yy0yLjMsMS4zLTUuMSwxLjUtNy42LDAuM2MtNy0yLjctMTMuOS01LjQtMjEtNy43Yy0zLTAuOS02LjEtMS4zLTkuMi0xLjJjLTEuNSwwLjMtMi44LDEuMy0zLjQsMi44Yy0wLjIsMSwxLjMsMywyLjUsMy41JiMxMDsmIzk7YzQuNSwyLDkuMiwzLjcsMTMuOSw1LjRjMy40LDEuMyw2LjgsMi43LDEwLjksNC4zYy0xLjcsMS4yLTIuNiwyLTMuNiwyLjZjLTcuMyw0LjctMTMuMSwxMS40LTE2LjcsMTkuM2MtMi42LDUuOC0xLjIsOC43LDUsOC4xJiMxMDsmIzk7YzYuMS0wLjcsMTItMi4yLDE3LjgtNC4zYzQuMi0xLjUsOC00LjEsMTIuMi02LjRjMSwzLjctMS40LDguNiw0LjIsOS4yYzMuNywwLjMsNy40LTAuMiwxMS4xLTAuNGMwLjUsOS4yLDAuNSw5LjIsNi44LDEyLjgmIzEwOyYjOTtjLTAuMSwwLjktMC4zLDEuOS0wLjcsMi44Yy00LjYsOS40LTkuNCwxOC42LTEzLjksMjhjLTUsMTAuNS0xMCwyMS0xNC41LDMxLjdjLTcsMTYuOS0xMy4yLDM0LjEtMjAuNCw1MC45JiMxMDsmIzk7Yy04LjMsMTkuMS0xMy42LDM5LjMtMTUuNyw2MGMtMi43LDI3LjctNS40LDU1LjMtNy45LDgzYy0wLjcsNi43LTEuMiwxMy4zLTEuNiwyMGMtMC4yLDMuMSwxLjQsNS4xLDQuNyw1LjJzMy41LTIuMywzLjctNC44JiMxMDsmIzk7YzAuNi02LjIsMS45LTEyLjEsNS44LTE3LjNjMTIuNi0xNy4yLDI4LTMyLjIsNDUuNi00NC4zYzIxLjMtMTQuNyw0NC42LTI1LjksNjgtMzYuN2MxNy40LTguMSwzNS4yLTE1LjQsNTEuOS0yNC44JiMxMDsmIzk7YzI2LjYtMTQuOSw0OS4xLTM0LjgsNjQuMS02MmMwLjgtMS4yLDEuOC0yLjQsMi44LTMuNmMwLDIuNSwwLjMsNCwwLDUuNGMtMi40LDExLTQuNSwyMi03LjMsMzIuOWMtNC41LDE3LjUtOS44LDM0LjktMTQuMyw1Mi40JiMxMDsmIzk7Yy0zLjcsMTQuNy02LjksMjkuNS05LjgsNDQuNGMtMiwxMC40LTMuMywyMS00LjcsMzEuNmMtMC4zLDEuOS0wLjgsNS4xLDIuMyw1LjFjMS42LDAsMy40LTIuMSw0LjgtMy41YzAuNi0wLjYsMC43LTEuOCwwLjktMi44JiMxMDsmIzk7YzEuMS02LjQsMy45LTEyLjQsOC4xLTE3LjRjNS42LTYuNiwxMS4yLTEzLjIsMTYuMy0yMC4xYzIwLTI3LjIsMzkuOS01NC41LDU5LjgtODEuN2MyLjUtMy40LDUuMS02LjcsNy42LTEwLjFsMS4xLDAuNCYjMTA7JiM5O2MwLjEsMS42LDAuMiwzLjIsMC4zLDQuOGMwLjQsMTQsMC43LDI4LDEuMyw0MmMxLDIxLjEsMi42LDQyLjIsMy4yLDYzLjRjMC44LDI3LjEsMS4yLDU0LjMsMS4xLDgxLjRjMCwxOS41LTEsMzktMS42LDU4LjUmIzEwOyYjOTtjLTAuMiwxLjQtMC41LDIuOC0xLDQuMmwtNS43LTQuOGwtMS41LDEuM2wzLjksNi4zbC0wLjksMS4xYy0xLjktMC42LTMuOS0xLTUuOC0xLjhjLTIxLjUtOC4yLTQzLjQtOC43LTY1LjYtMi45bC0wLjIsMC4zbC0wLjItMC4yJiMxMDsmIzk7bC04LjEsMi41bDEuNywxLjhjNC43LTEsOS40LTIuMSwxNC4xLTNjMTcuMS0zLjMsMzQtMy4yLDUwLjYsMi41YzEuNywwLjcsMy4zLDEuNCw0LjgsMi4zYy0xLDEtMS42LDEuMy0yLjIsMS4yJiMxMDsmIzk7Yy0xMy4xLTEuNS0yNi4yLTAuMy0zOS4xLDIuMWMtMS40LDAuMy0yLjcsMS40LTQsMi4xYzEuMiwwLjEsMi40LDAuMiwzLjYsMC4xYzQtMC42LDcuOS0xLjUsMTItMS45YzQuMy0wLjQsOC42LTAuNSwxMy0wLjUmIzEwOyYjOTtjOS4zLTAuMSwxOC43LTAuMiwyNy41LDMuNmMxLjMsMC43LDIuNSwxLjUsMy42LDIuM2MtMS4xLDAuOC0yLjQsMS4zLTMuOCwxLjNjLTEuMywwLjItMi43LDAuMi00LDAuNGMtMTYuNSwzLjItMzMuNCwzLjMtNTAsMC40JiMxMDsmIzk7Yy0xLjEtMC4xLTIuMywwLTMuNCwwLjJjLTIuMywwLjQtNC41LDAuNy02LjgsMC44Yy01LjgsMC4xLTExLjYtMC4yLTE3LjQsMGMtMC44LDAtMS42LDEuNS0yLjMsMi4yaDM1MWMtMC41LTAuOC0wLjktMi4xLTEuNi0yLjMmIzEwOyYjOTtjLTIuNC0wLjgtNC44LTEuMy03LjMtMS40Yy0xMS4xLTAuMy0xNy44LTcuMy0yMy4zLTE1LjZjLTguNS0xMi44LTkuOC0yNi45LTUuOS00MS42YzEuNC01LjIsMC4yLTYuOC01LjMtNi4yJiMxMDsmIzk7Yy0yLjQsMC4zLTQuOCwwLjktNy4zLDAuOWMtMywwLTQuOS0xLjctNC45LTVjMC05LjgsMC4yLTE5LjYsMy4yLTI5LjFjMS42LTUuMSwwLjUtNi44LTUtNi44Yy04LjgsMC0xNy43LDAuMS0yNi41LDAuNyYjMTA7JiM5O2MtMy40LDAuMi01LTEtNS42LTRjLTEuNS04LTMuMS0xNi00LjUtMjRjLTAuNC0yLjEtMC4xLTQuMy0wLjQtNi41Yy0wLjYtNC4yLTEuNC04LjIsNC4zLTkuOWMxLjQtMC40LDIuMi0yLjcsMy4yLTQuMyYjMTA7JiM5O2MyLjEtMy4zLDMuNi03LjEsNi4yLTEwYzUuOS02LjgsMTIuMS0xMy4zLDE4LjUtMTkuNWMyLTIsNC45LTMuMiw3LjYtNC4xYzQuMi0xLjUsNy03LjEsNS0xMC43Yy0yLTMuNS04LjEtNS0xMS45LTEuNyYjMTA7JiM5O2MtNS4xLDQuNS0xMC42LDMuNy0xNi40LDMuNmMtNS4zLTAuMS0xMC43LTAuMS0xNi0wLjJjLTUtMC4xLTkuOS00LjUtMTAuMy05LjVjLTAuNi04LjMtMS0xNi42LTEuNS0yNS42YzUuMi0wLjYsMTAuNC0xLjQsMTUuNi0xLjYmIzEwOyYjOTtjMS4xLDAsMi41LDEuNywzLjUsMi45YzMsMy4zLDcuNyw0LjQsMTEuOSwyLjdjNC0xLjUsNi4xLTUsNS45LTkuNGMtMC4xLTMuMS0xLjMtNS43LTQuNS02LjRjLTIuOC0wLjctMy43LTIuNC0zLjYtNSYjMTA7JiM5O2MwLjEtMy4zLDAtNi42LDAtOS42YzQuOC0yLDkuMy0zLjYsMTMuNi01LjdjNi41LTMuMSwxMS4xLTguNCwxNS4xLTE0LjFjMS43LTIuNCwyLjktMi44LDUuNy0xLjhjMTUuMyw1LjQsMzAuOCwxMC4zLDQ2LjEsMTUuNyYjMTA7JiM5O2MxLjcsMC42LDMuOSwyLjQsNC4zLDRjOC4yLDMxLjIsMjguOSw1Mi4zLDU1LjMsNjljMTQuMyw4LjksMjkuNywxNS43LDQ1LjksMjAuM2MwLjksMC4zLDEuOCwwLjYsNCwxLjQmIzEwOyYjOTtjLTI5LjcsMTgtNTUuMywzOS44LTgxLjEsNjMuMWM1LjcsOC4yLDExLjQsMTcuMiwxNy44LDI1LjZjMTYuMiwyMS4zLDMyLjgsNDIuMyw0OS4yLDYzLjVjMSwxLjQsMS43LDIuOSwyLDQuNSYjMTA7JiM5O2MtMTEuNi01LjctMjMuMS0xMS40LTM1LjgtMTQuMXMtMjUuNC0zLTM4LDEuNGMxNy45LTEuNiwzNS40LTEuMSw1MS43LDcuMWMwLDAuNiwwLDEuMS0wLjEsMS43Yy00LjMtMC4yLTguOCwwLjQtMTIuOC0wLjcmIzEwOyYjOTtjLTguMi0yLjMtMTYuMS0wLjQtMjQuMiwwLjVjLTYuNSwwLjYtMTIuNCwzLTE4LjEsNi4yYzMuNy0wLjQsNy4zLTEuMSwxMC44LTJjMi44LTAuNyw1LjUtMS42LDguMi0yLjVsMTMuNS0wLjN2MC4zbDAuMy0wLjEmIzEwOyYjOTtjNS4zLDAuNSwxMC43LDEsMTYsMS43YzIuMSwwLjMsNC4yLDEsNiwyLjFjLTEwLjQsMS4zLTE5LjIsNS42LTI3LjEsMTEuOWMtMTAuOS0wLjEtMjEuOC0wLjItMzIuNy0wLjJjLTAuNywwLTEuMywwLjYtMiwwLjloNDImIzEwOyYjOTtjMS0xLjEsMS44LTIuNSwzLjEtMy4xYzEwLjctNS40LDIzLTYuNSwzNC41LTMuMmM0LjEsMS4xLDgsMi45LDExLjksNC41YzAuMiwwLjEsMC4xLDAuNywwLjEsMWMtMTQuMSwwLTI4LjItMC4xLTQyLjMsMCYjMTA7JiM5O2MtMS40LDAuMS0yLjgsMC40LTQuMiwwLjloMTc2Yy0wLjktMi4xLTAuOS0yLjItMy40LTIuMmMtNC45LDAtOS44LDAtMTQuNywwbC0wLjItMS41bDkuOC0yLjRsMTAuMS0xLjhjMTAuOS0wLjQsMjEuOC0xLjUsMzIuNy0wLjgmIzEwOyYjOTtjNS42LDAuNCwxMSw0LDE2LjUsNi4yYzEuMywwLjUsMiwxLjMsMC4yLDIuMmMtMC42LTAuMi0xLjMtMC40LTEuOS0wLjRjLTEyLjgsMC0yNS42LDAtMzguNSwwYy0wLjUsMC0xLDAuNi0xLjUsMC45aDQ2JiMxMDsmIzk7Yy0wLjItMC4yLTAuMS0wLjUsMC4xLTAuN2MwLDAsMC4xLDAsMC4xLTAuMWMtNS4xLTcuNy0xMy41LTguOC0yMS42LTEwLjZsLTAuMi0wLjNsLTAuMiwwLjNsLTUuNy0wLjJsLTEwLjEsMGwtNy43LDAuMmwtMC4yLTAuMiYjMTA7JiM5O2wtMC4yLDAuM2gwaDBsLTYuOCwwLjdjLTUuMy0xLjItMTAuMSwwLjctMTQuOSwyLjVsLTMtMC4yYzEzLjItNy44LDI3LjctMTMuMiw0Mi44LTE2bDMuMy0xLjJsNS43LTAuOGMzLjQtMC40LDYuOS0wLjcsMTAuMy0xLjImIzEwOyYjOTtjNi4yLTAuOSwxMi4zLTEuOSwxOC41LTIuOWMtOS42LTIuOC0xOS4xLDAuOS0yOC42LDFjLTAuNCwwLTAuOSwwLjgtMS4zLDEuMmwtOC43LDEuM2wtMS40LDAuNWMtMTIuOCwyLjItMjUsNi42LTM2LjksMTEuOCYjMTA7JiM5O2MtMS42LDAuNi0zLjEsMS4xLTQuOCwxLjVsLTEtMS40YzIzLTMyLjEsNDguNS02Mi41LDc2LjEtOTAuOGMtMjctMjMuMi01NS00NC04Ny41LTYwYzAuNy0wLjQsMS40LTAuOCwyLjEtMS4yJiMxMDsmIzk7YzEuMS0wLjMsMi4zLTAuNSwzLjQtMC43YzE4LjMtMi43LDM2LjEtNy40LDUzLjgtMTIuN2MyLjQtMC43LDQuOS0wLjcsNy4zLDBjMTkuNSw1LjUsMzksMTEuMiw1OC40LDE2LjdjMi43LDAuOCw1LjUsMC43LDksMS4xJiMxMDsmIzk7Yy0xLjItNy40LTYuMi05LjItMTEtMTAuOGMtMTMtNC4xLTI2LTgtMzktMTJjLTEuMi0wLjYtMi4zLTEuMi0zLjQtMmM2LTIuOCwxMS40LTUuMywxNi43LTcuOUM4OTcuNSwzNjYuMSw5MDcuOCwzNTguNiw5MTYuNSwzNDkuNCYjMTA7JiM5O3ogTTEyNi41LDk2LjhjMy4xLTMuOCw2LjctNy4yLDEwLjItMTAuN2M4LjQtOC4zLDE2LjYtMTYuOSwyNS40LTI0LjhjMTUuOC0xNC4yLDMyLjMtMjcuNCw1MS4yLTM3LjRjMC45LTAuNCwxLjgtMC43LDIuOC0xaDAuMiYjMTA7JiM5O2M0LjQtMi4xLDguNy00LjYsMTMuMy02LjJjOC41LTMsMTcuMS02LDI2LTcuOWM4LjUtMS44LDE3LjMtMi4xLDI2LTMuMWwzLjEtMC4yYzIuMi0wLjUsNC40LTAuOCw2LjYtMWM0LjUtMC4xLDguOSwwLDEzLjQsMC4yJiMxMDsmIzk7YzEuNSwwLjEsMywwLjksNC41LDEuM2wzLjUtMC4xbDkuNiwxYzAtMC4yLDAuMy0wLjMsMC41LTAuM2MwLjEsMCwwLjEsMCwwLjIsMC4xYzguNy0wLjQsMTYuNiwyLjYsMjQuNSw1LjQmIzEwOyYjOTtjMTYuOSw2LDMyLjEsMTUsNDYuNSwyNS41YzIzLjMsMTcuMiw0Mi42LDM3LjgsNTQuNiw2NC42YzUuNywxMi45LDExLjIsMjUuOSwxMC40LDQwLjFjLTAuNSw4LjYtMi4yLDE3LjEtNS4yLDI1LjEmIzEwOyYjOTtjLTcsMTguOS0xOS40LDM0LjItMzQuMyw0Ny42Yy01LjgsNS4yLTExLjksOS45LTE3LjksMTQuOWMtMC4yLDAuMy0wLjQsMC41LTAuNywwLjZjLTQsMy40LTcuMiw4LjQtMTUsNy43bDMuNy02LjhsMy44LTkuMyYjMTA7JiM5O2MwLjYtMywxLjEtNi4xLDEuNC05LjFjMC4xLTAuOS0xLjMtMS44LTItMi44Yy0xLDAuOS0yLjUsMS41LTMsMi42Yy0yLjcsNi42LTQuNiwxMy42LTcuOSwxOS43Yy0yLDMuNy02LjEsNi40LTkuNyw4LjkmIzEwOyYjOTtjLTEuNCwxLTQuNiwxLjEtNS45LDAuMnMtMS43LTMuOC0xLjYtNS44czEuNi0zLjksMi41LTUuOGMwLjYtMC45LDEuMS0yLDEuNS0zLjFjMC4yLTEuOCwwLjMtMy43LDAuMy01LjZsLTYuMSwwLjZsLTAuMiwwLjMmIzEwOyYjOTtjLTMsMTEuMy05LjUsMjAuMS0xOSwyNy42Yy0yLjMtNC41LTMuNi04LTIuMi0xMi42YzMtOS40LDcuNi0xNy45LDEyLjQtMjYuNGMwLjQtMC45LDAuOC0xLjksMS0yLjljLTMuMy0xLjUtNS44LTEuMi03LjksMS43JiMxMDsmIzk7Yy0xLjUsMS43LTMuMSwzLjQtNC45LDQuOWgtMC4xYy0xLjUsNC45LTQuMyw4LjctOS4yLDEwLjZjMC44LDQuNS0yLjUsNy4yLTQuOSw5LjhjLTUuNCw1LjgtMTEuMywxMS4yLTE3LjEsMTYuNiYjMTA7JiM5O2MtMS42LDEuNC0zLjgsMi4xLTYuNCwyLjRjMS40LTE2LDEwLjYtMjcuMywyMC45LTM4LjJsMS4zLTEuMmM1LjEtMy42LDEwLTcuNiwxNS4zLTEwLjhjNy43LTQuNywxNS44LTguOSwyMy43LTEzLjQmIzEwOyYjOTtjMC42LTAuMywwLjgtMS40LDEuMS0yLjFsLTEuMy0xLjNjLTQuOSwxLjktMTAuMSwzLjMtMTQuNiw1LjljLTguNiw1LTE3LjUsMTAuMS0yNSwxNi40Yy02LjIsNS4yLTExLjYsNS4yLTE4LjUsMi43JiMxMDsmIzk7Yy0yOC44LTEwLjQtNTcuOC0yMC41LTg2LjctMzAuN2MtMS40LTAuNS0yLjYtMS4zLTUuMS0yLjVjMi41LTAuOCw1LTEuNCw3LjYtMS45YzExLjUtMS40LDIzLjEtMy42LDM0LjYtMy43JiMxMDsmIzk7YzUuOCwwLDExLjUsMC4zLDE3LjMtMC42YzAuMiwwLDAuMywwLDAuNSwwLjFsNC45LTAuNWMtMC4xLTAuMi0wLjEtMC41LDAtMC44bC0wLjMtMC4yYy00LjMsMC4yLTguNCwwLjQtMTIuMS0zJiMxMDsmIzk7Yy0xLTAuOS00LjYtMC42LTUuNywwLjRjLTIuNSwyLjQtNS4zLDIuNC04LjIsMi4zYy0zLjMtMC4xLTYuNiwwLTkuOSwwbC0zLjQsMC41bC0yMy42LDIuN2wtNC4zLDEuMWMtNC42LDIuNC04LjgtMC4zLTEyLjktMS41JiMxMDsmIzk7Yy00LjgtMS4zLTkuNC0zLjQtMTQuMi00LjhjLTIuNy0wLjgtMy40LTIuMy0zLjMtNC43YzAuNC03LjgsMC4xLTE1LjYtMy4yLTIyLjljLTAuNC0xLDAuMy0yLjUsMC42LTMuOWwtNS41LTMmIzEwOyYjOTtjLTAuNywxLjgtMS40LDMuNC0yLjIsNS40YzUuMiwwLjgsNi4yLDQuNCw2LjMsOC40YzAuMSw1LjcsMCwxMS41LDAsMTcuOWMtNy41LTIuNS0xNC41LTQuOC0yMS41LTcuMyYjMTA7JiM5O2MtMTcuOC02LjQtMzUuNi0xMi45LTUzLjQtMTkuMmMtNS4zLTEuOS01LjQtMi4zLTIuNy03LjFDMTA4LjEsMTIwLDExNy4xLDEwOC4yLDEyNi41LDk2LjhMMTI2LjUsOTYuOHogTTMzNy4yLDIzMy40bC0wLjMsMC4xJiMxMDsmIzk7YzAtMC4xLTAuMS0wLjMtMC4xLTAuNGMwLTAuMSwwLjItMC4xLDAuMy0wLjFMMzM3LjIsMjMzLjR6IE0xOTAuMywxODEuMWwtMTMuMyw0LjRDMTc4LjcsMTc1LjgsMTgwLjgsMTc1LDE5MC4zLDE4MS4xeiYjMTA7JiM5OyBNMTczLjcsMjA5LjVjLTQuMi0yLTctMi0xNC41LTAuMmMtMS43LTMuMSwwLjUtNC45LDIuNi02YzQuNS0yLjMsOS4xLTQuOSwxNC01LjljMTEuMy0yLjMsMjIuOC0zLjEsMzQsMSYjMTA7JiM5O2M4LjcsMy4yLDE2LjQsOC4xLDIyLjQsMTUuMmM2LjUsNy43LDYuNCwxOS43LDAuOSwyOS42Yy01LjMsOS40LTEzLjksMTQuNy0yMy4zLDE4LjZjLTE4LDcuNS0zNiw2LjEtNTIuOS0zLjEmIzEwOyYjOTtjLTctMy45LTEzLjQtOS40LTE1LjItMTguMmMtMS40LTYuNi0wLjUtMTIuNSw1LjYtMTYuN2MyLTEuNiw0LTMuMiw1LjgtNWM0LjYsOC42LDEyLjgsMTEsMjEuMiw2LjVjMy4yLTEuNiw1LjEtNSw0LjgtOC42JiMxMDsmIzk7QzE3OC43LDIxMywxNzYuNiwyMTEsMTczLjcsMjA5LjV6IE0xNjYuNCwxODUuMmMtNC44LTEtOS4zLTMuMi0xMy4xLTYuM2MtNy4xLTUuOS0xNS45LTguNy0yNS4xLTkuOGMtNC45LTAuNi05LjktMS4yLTE0LjgtMS43JiMxMDsmIzk7Yy05LjEtMC44LTE3LjgsMS41LTI2LjUsNGMtMiwwLjYtNCwwLjctNywxLjJjMC43LTIuNiwwLjktNC4yLDEuNi01LjZjMy4xLTYsNi41LTExLjksOS42LTE3LjljMS40LTIuNywyLjgtMy4yLDUuOS0yLjEmIzEwOyYjOTtjMTQuNyw1LjQsMjkuNSwxMC4zLDQ0LjIsMTUuNGMxMC41LDMuNywyMC45LDcuNSwzMS40LDExLjJjMi41LDAuOSwzLjYsMi4zLDIsNC45Yy0xLDEuNi0xLjksMy4xLTIuOCw0LjcmIzEwOyYjOTtDMTcwLjYsMTg1LjYsMTY5LDE4NS44LDE2Ni40LDE4NS4yeiBNNzIuNywxNDIuNGMtMi45LDIuOC01LjcsNS44LTguOCw4LjRjLTEuMSwwLjUtMi41LDAuNS0zLjUtMC4yYy0wLjYtMC42LTAuNy0yLjYtMC4yLTMuNCYjMTA7JiM5O2MzLTQuNyw2LjItOS4yLDkuMy0xMy44YzIuNS0zLjQsNS4yLTYuOCw3LjQtMTAuNGMwLjctMS4xLDAuNi0zLjgsMC00LjJjLTEuMy0wLjctMy4yLTAuNC00LjgtMC4zYy0wLjUsMC0wLjksMC45LTEuMywxLjQmIzEwOyYjOTtjLTIuMywyLjktNC42LDUuOS03LDguOGMtOS4xLDEwLjctMTkuNywxOS40LTM0LDIyYy0xLjksMC40LTMuOSwwLTYuNiwwYzMuNS02LjksOC4zLTExLjQsMTMuMi0xNS43YzExLjktMTAuNSwyNi4yLTE2LjcsNDEtMjEuOCYjMTA7JiM5O2MxMS4zLTMuOSwyMi41LTgsMzMuOC0xMS45YzIuNC0wLjksNS0xLjIsNy41LTFjLTIuOSwzLjYtNS43LDcuMi04LjcsMTAuNmMtMTIuMywxNC4xLTIxLjQsMzAuMy0yOS44LDQ3Yy0xLDEuNy0yLjIsMy4yLTMuNSw0LjYmIzEwOyYjOTtsLTEuNy0wLjljMC40LTIsMS0zLjksMS44LTUuN2M0LTcuNiw4LjQtMTUuMSwxMi4zLTIyLjdjMS0yLDEuMS00LjQsMS42LTYuNmMtMC4yLDAtMC4zLTAuMi0wLjQtMC4zYy0zLjYtMC43LTUuOCwwLjktNy42LDMuOSYjMTA7JiM5O2MtMS44LDMuMS0zLjgsNi4xLTYsOUM3NS44LDE0MC40LDc0LjEsMTQxLjMsNzIuNywxNDIuNEw3Mi43LDE0Mi40eiBNNjMuOSwyMDQuOWMxLjgtNC40LDMtOS4xLDQuNy0xMy42YzIuMy01LjksNi45LTkuNSwxMi40LTEyLjQmIzEwOyYjOTtjMjAtMTAuNSw0MC4zLTkuNCw2MC44LTEuN2MzLjIsMS4yLDUuOSwzLjQsOS44LDUuN2MtNy4zLDIuMS0xMy40LDMuMy0xOSw1LjZjLTExLjYsNC43LTIyLjQsMTEuMS0zMS41LDE5LjgmIzEwOyYjOTtjLTEuNiwxLjUtMy42LDIuNS02LjMsNC4ybC0wLjYsNC4yYzMuNi0xLDUuNy0yLjIsNy42LTUuOXM2LjgtNiwxMC41LTguOGMxLjYtMSwzLjMtMiw1LjEtMi44YzAuMywwLjcsMC43LDEsMC42LDEuMiYjMTA7JiM5O2MtMyw4LjEtMC4xLDEzLjQsOC41LDE0LjRjMy42LDAuNCw3LjMsMC4xLDEwLjctMC45YzUuMi0xLjYsNy41LTUuNiw3LjItMTAuNmMtMC4zLTQuNy0yLjUtNy4yLTgtOC45Yy0xLjQtMC40LTIuOC0xLTQtMS44JiMxMDsmIzk7YzYuMS0zLDEyLjctNC43LDE5LjUtNC45YzEuNCwwLDMuNiwxLjksNC4yLDMuNGMyLDQuOSwwLjYsMTAuNi0zLjQsMTQuMWMtNS43LDQuNi0xMC4zLDEwLjQtMTMuNiwxN2MtMS4yLDItMi44LDMuNi00LjcsNC45JiMxMDsmIzk7Yy02LjcsNC45LTE0LDguOS0yMi42LDkuM2MtNi4zLDAuNC0xMi42LDAuNC0xOC45LDAuMWMtMTAuOS0wLjctMTkuNy02LTI2LjQtMTQuM0M2Mi40LDIxNy42LDYxLjQsMjEwLjgsNjMuOSwyMDQuOXogTTMxMy41LDI3OS4zJiMxMDsmIzk7Yy0zLDEuNy01LjUsNC42LTcuNyw3LjNjLTMuNCw0LjItNi41LDguNy05LjcsMTMuMWMtMi4xLDMuNS00LDcuMi02LjQsMTAuNWMtNS43LDcuNi0xMS44LDE1LjEtMTcuNiwyMi42Yy0yLjMsMy4yLTQuNSw2LjUtNi44LDkuOCYjMTA7JiM5O2MtMTAuOSwxNS4xLTIxLjYsMzAuMy0zMi42LDQ1LjNjLTMuNSw0LjgtNy42LDkuMS0xMi4yLDE0LjZjLTAuMy0yLjEtMC43LTMtMC42LTMuOGMzLjItMTYuNiw2LjEtMzMuMywxMC00OS44JiMxMDsmIzk7YzMuMi0xMy43LDcuOC0yNy4xLDExLjUtNDAuN2M0LjEtMTUuMiw4LjItMzAuNSwxMS42LTQ1LjljMS4zLTUuOSwwLjgtMTIuMiwwLjUtMTguMmMtMC40LTItMS43LTMuOC0zLjYtNC42JiMxMDsmIzk7Yy0yLjctMC44LTMuNSwxLjctNC41LDQuMWMtNy4zLDE2LjctMTcuNywzMS4yLTI5LjgsNDQuN2MtMTIuNCwxMy44LTI3LjMsMjQuNC00My41LDMyLjljLTE2LjQsOC43LTMzLjYsMTYtNTAuNCwyNCYjMTA7JiM5O2MtMjAuOCw5LjgtNDIsMTguOC02MS4xLDMxLjZjLTguMyw1LjgtMTYuMSwxMi4zLTIzLjIsMTkuNGMtOS41LDkuMi0xOC4yLDE5LjMtMjcuMywyOC45Yy0wLjksMC43LTEuOCwxLjMtMi44LDEuOCYjMTA7JiM5O2MwLjUtNS4yLDAuOC05LjQsMS4zLTEzLjVjMC45LTguOCwxLjktMTcuNSwyLjgtMjYuM2MyLjQtMjMsNC4yLTQ2LDcuNi02OC45YzEuNy0xMSw1LjktMjEuOCw5LjktMzIuMyYjMTA7JiM5O2M3LjktMjAuNCwxNi40LTQwLjYsMjQuNy02MC44YzEuMi0zLDIuOC01LjgsNC42LTkuNWM3LjIsMTguNiwyMS44LDIzLjksMzkuMSwyNC44YzEwLjQsMC42LDIwLjYsMC4yLDMwLjItNC42JiMxMDsmIzk7YzEuOC0wLjksNC4yLTAuNSw2LjYtMC43YzAuNCwxLjEsMC44LDIuMywxLDMuNWMwLjksMTIuMiw5LjEsMTguNywxOC44LDIzLjhjMTQsNy40LDI4LjksMTAuNSw0NC40LDdjMTYuOC0zLjgsMzItMTAuNiw0MC4yLTI3LjImIzEwOyYjOTtjOC40LTE2LjksNC0yOC40LTkuNi0zOS41Yy05LjItNy42LTIwLjgtMTEuNy0zMi44LTExLjZjLTcuNywwLTE1LjQsMC42LTI0LjIsMWwxMy4zLTUuNmMwLjEtMC4xLDAuNCwwLDAuNS0wLjEmIzEwOyYjOTtjMTAtNi4xLDE5LjQtMS4xLDI4LjYsMi4xYzIyLjcsNy45LDQ1LjMsMTYuMiw2OCwyNC4yYzguOSwzLjIsMTcuOSw2LDI3LjksOS40Yy0xLjUsMi45LTIuOSw1LjQtNCw3LjljLTIuOCw2LjMtNS43LDEyLjYtOC4yLDE5JiMxMDsmIzk7Yy0xLjQsMy42LDAsNywzLDkuM2MzLDIuNCw3LjMsMi4zLDEwLjEtMC40YzcuMy02LjUsMTQuMi0xMy40LDIxLjItMjAuMmMwLjctMC43LDEuMy0xLjUsMi0yLjJjMC4yLTAuMiwwLjYtMC4xLDEuNS0wLjImIzEwOyYjOTtjLTAuNiwzLjEtMS4xLDYtMS44LDguOWMtMC45LDMuNS0wLjgsNi43LDIuNCw4LjljMi44LDIsNy45LDEuNiwxMC45LTAuNmMzLjMtMi41LDYuNS01LjEsMTAuMi04YzMuNyw0LjYsOS4yLDMuNywxNS42LDMuNiYjMTA7JiM5O2MtMSwxLjktMS4yLDMuNi0yLjIsNC4zYy0xMy44LDkuNi0yOC45LDE3LjEtNDQuOSwyMi40QzMyMS45LDI3Ni4yLDMxNy40LDI3Ny4yLDMxMy41LDI3OS4zTDMxMy41LDI3OS4zeiBNMzU1LjgsNTU1LjcmIzEwOyYjOTtjLTAuMSwyLTAuMywzLjktMi44LDMuOWMtOS45LDAuMS0xOS45LDAtMzAuMSwwYzAtNC44LTAuMS05LjcsMC0xNC43YzEuNS00OC44LDAuNC05Ny41LTEuNC0xNDYuM2MtMC44LTIzLTEuNi00NS45LTIuNC02OC45JiMxMDsmIzk7Yy0wLjUtMTQuMy0xLjEtMjguNi0xLjUtNDIuOWMwLTEuNSwwLjctNC4xLDEuOC00LjVjMTAuNy00LjgsMjEuNi05LjIsMzMuNS0xNC4yYzAsOS41LDAuMSwxOC4zLDAsMjcuMSYjMTA7JiM5O2MtMC4zLDIxLjgtMS41LDQzLjYtMC45LDY1LjRjMC45LDMzLjgsMi4zLDY3LjUsNC43LDEwMS4yQzM1OC45LDQ5My4zLDM1Ny4zLDUyNC41LDM1NS44LDU1NS43TDM1NS44LDU1NS43eiBNMzYzLjgsNTM2LjMmIzEwOyYjOTtjLTAuNC0yNy0wLjYtNTMuOS0xLjUtODAuOWMtMS4xLTM0LjEtMy43LTY4LjItNC4yLTEwMi4zYy0wLjQtMjguMSwxLjMtNTYuMiwyLTg0LjRjMC4xLTMuNCwxLjItNS42LDQuNC03LjUmIzEwOyYjOTtjNi40LTMuNSwxMi4zLTcuOCwxOC42LTExLjVjMS43LTAuOSwzLjYtMS4xLDUuNC0wLjZjMTEuOCwzLjksMjMuNiw4LDM1LjMsMTIuMWMxMCwzLjUsMjAsNywzMC42LDEwLjdjLTAuMSwxLjcsMCwzLjQsMC4zLDUuMSYjMTA7JiM5O2MxLjEsNS4xLDEuMSwxMS4yLDQsMTUuMWM2LjEsOC41LDYuMiwxNy45LDcuMiwyNy40YzAuMSwxLDAsMiwwLjIsM2MwLjksNS45LDAuOSw1LjktNS4yLDYuNGMtMywwLjQtNiwwLjUtOSwwLjUmIzEwOyYjOTtjLTIuNC0wLjEtNC43LTAuNi02LjktMS41Yy0zLjUtMS41LTcuNi0xLjMtMTAuMywxLjFjLTIuNSwyLjMtMi40LDUuMi0wLjUsOGMxLjUsMi4xLDIuNyw0LjQsMy4zLDYuOWMyLjYsMTIuMiw1LDI0LjQsNy40LDM2LjYmIzEwOyYjOTtjMC4yLDEuMi0wLjQsMi41LTAuNCwzLjhjMCwxLjUtMC40LDMuOCwwLjUsNC41YzEuNCwxLjEsMy41LDEuNSw1LjQsMS43YzEuMiwwLjEsMi41LTEsMy43LTEuMmM2LjQtMSw3LjYsMC4yLDYuNCw2LjYmIzEwOyYjOTtjLTAuNSwyLjUtMC40LDUtMS4yLDcuNGMtMSwzLjQtMi40LDYuNy00LjIsOS44Yy0yLjIsMy43LTIsNy4zLDEsMTAuNGMwLjgsMC44LDEuOCwxLjYsMiwyLjZjMS45LDkuMywzLjgsMTguNSw1LjUsMjcuOSYjMTA7JiM5O2MwLjMsMS43LTAuMiwzLjYtMC4zLDUuOWMtNS45LDAuMy0xMS43LDAuNS0xNy41LDAuOWMtNC4zLDAuMy04LjYsMC44LTEyLjksMS42Yy01LjUsMS02LjksMy40LTUuMiw4LjhjMS40LDQuNSwzLDguOCw0LjMsMTMuMyYjMTA7JiM5O2MwLjUsMi4xLDAuOSw0LjIsMS4xLDYuNGwtMTUuMyw0LjljMi42LDcuNSw1LjEsMTQuOCw3LjUsMjIuMWMwLjEsMSwwLjEsMS45LDAuMiwyLjlsLTEsNi41bDAuMiwyLjhjLTAuOSwzLTEuNiw2LTIuNyw4LjkmIzEwOyYjOTtjLTMsNy43LTMuMSw3LjYtMTEuMiw2LjhoLTIuM2MtNS45LDAuNC0xMS45LDAuNi0xNy44LDEuMnMtMTEuNiwxLjYtMTcuNCwyLjRjLTAuMi0wLjUtMC40LTAuOS0wLjUtMS40YzcuMS0zLjIsMTQuMi02LjgsMjEuNC05LjYmIzEwOyYjOTtjNy43LTMsMTUuNi01LjQsMjMuNS04bC0wLjMtMS44Yy0xNC4xLDMuMS0yNy45LDcuMy00MC44LDEzLjljLTQuMiwyLjItOC4yLDQuOS0xMy4yLDcuOUMzNjMuOCw1NDUsMzYzLjksNTQwLjcsMzYzLjgsNTM2LjMmIzEwOyYjOTtMMzYzLjgsNTM2LjN6IE0zNzAuMSw1NjBjMC0wLjQtMC4xLTAuOS0wLjEtMS4zbDI4LjgtMmMwLDAuNSwwLDAuOSwwLjEsMS40QzM4OS41LDU2MiwzNzkuNyw1NTksMzcwLjEsNTYwTDM3MC4xLDU2MHogTTQxMS4xLDU1NS42JiMxMDsmIzk7djAuM2wtMC4zLTAuMmMtOS4yLTAuNS0xOC41LTEuMS0yNy43LTEuNGMtMi40LTAuMS00LjgsMC44LTcuMSwxYy0xLjMsMC0yLjUtMC4zLTMuNS0xYzE0LjItNC43LDI5LjEtNi41LDQzLjktNS41TDQxMS4xLDU1NS42eiYjMTA7JiM5OyBNNDk2LjgsNDY0LjdjNS40LTAuMywxMC45LTAuNCwxNi4zLTAuNGM1LjksMCw3LjksMi43LDcuMiw4LjZjLTAuOSw2LjYtMS41LDEzLjItMS43LDE5LjhjLTAuMSw4LjEsMS43LDkuNSw5LjcsOS42JiMxMDsmIzk7YzEuOCwwLDMuNiwwLDYuMiwwYy0wLjQsMy44LTAuNSw3LjItMS4zLDEwLjVjLTMuMSwxNC4yLDIsMjYuMyw5LjcsMzcuOGMxLjgsMi43LDMuMiw1LjYsNS4xLDguOGMtOC41LDIuNy0xNi40LDEuNS0yNC4yLDEuNCYjMTA7JiM5O2MtMTIuMS0wLjItMjQuMiwwLTM2LjMsMC4xYy04LjgsMC0xNy42LDAuMi0yNi41LDAuMWMtNS44LTAuMS0xMS42LTAuNC0xNy40LTAuOWMtOC4zLTAuOC0xNi42LTEuOS0yNS42LTNjMS44LTMuOSwyLjEtNy41LDYuNC04JiMxMDsmIzk7YzAuOS0wLjMsMS43LTAuOSwyLjEtMS44YzIuNC03LDUuNi0xMy45LDYuNy0yMS4xYzAuNy00LjgtMS40LTEwLTIuNy0xNWMtMC45LTIuNy0yLTUuMy0zLjMtNy43Yy0xLjYtMy40LDAuMS01LjMsMi45LTYuOCYjMTA7JiM5O2MwLjMtMC4xLDAuNy0wLjIsMS0wLjNjOS4xLTMuNCw5LjQtNCw2LjQtMTMuNGMtMC44LTIuMi0xLjQtNC40LTEuOC02LjdjLTEuMi03LjEtMS4yLTcuMiw1LjUtOWMyLjEtMC42LDQuMi0wLjksNi40LTAuOSYjMTA7JiM5O2M5LTAuMSwxOCwwLDI3LTAuM0M0ODEuOSw0NjUuOSw0ODkuNCw0NjUuMSw0OTYuOCw0NjQuN0w0OTYuOCw0NjQuN3ogTTQ3NS4yLDM3NC44YzExLjgtMC4zLDIzLjYtMC43LDM1LjUtMSYjMTA7JiM5O2MxLjMsMC4xLDIuNSwwLjMsMy44LDAuNmMwLjIsMC40LDAuNCwwLjgsMC43LDEuMmMtMy45LDQuMS03LjYsOC4yLTExLjYsMTIuMWMtNC4yLDQuMS04LjQsOC4xLTEyLjksMTEuOGMtMS42LDEuMy00LDEuOC02LjEsMi41JiMxMDsmIzk7Yy0yLjYsMS01LjUsMS40LTcuOCwyLjhjLTUsMy4zLTUsNy41LTAuOCwxMS41YzEuMiwxLDIsMi4zLDIuMywzLjhjMS4yLDExLjgsMi4zLDIzLjUsMy40LDM1LjNjMC4xLDEuMywwLDIuNiwwLDMuOCYjMTA7JiM5O2MtNi4zLDEuOC03LjIsMS41LTkuNi0zLjZjLTQuMy05LjItNi42LTE5LjMtNi45LTI5LjVjLTAuMS0xLjksMC44LTMuOCwxLjYtNS42YzEuMS0yLjgsMS4zLTUuMi0wLjctNy45Yy0xLTEuNi0xLjQtMy41LTEuMS01LjQmIzEwOyYjOTtjMC42LTQuOCwxLjYtOS41LDIuNi0xNC4yYzAuMy0xLjQsMC41LTMuMSwxLjQtNC4xYzEuOC0yLjEsMy00LjQsMC45LTYuNmMtMi4xLTIuMy01LjYtMi44LTguMi0xLjFjLTAuNiwwLjMtMSwwLjktMS42LDEuMiYjMTA7JiM5O2MtNC41LDIuMy04LjcsMC42LTkuNi00LjJjLTIuMy0xMi4xLTQuNC0yNC4yLTYuNS0zNi4zYy0wLjUtMi43LDIuMS02LjQsNS4xLTYuOGM1LjktMC44LDExLjgtMS4yLDE4LTEuN2MwLjcsOC44LDEuNSwxNy4xLDIsMjUuMyYjMTA7JiM5O2MwLjEsMS4yLTEuMywyLjUtMi4yLDMuN3MtMi4yLDItMywzLjJjLTIuOCw0LjEtMS43LDcuNSwzLjEsOC43QzQ2OS41LDM3NS4yLDQ3Mi40LDM3NC45LDQ3NS4yLDM3NC44TDQ3NS4yLDM3NC44eiBNNDkwLjgsMzI1LjkmIzEwOyYjOTtjLTAuMywwLjEtMC43LDAuMS0xLDAuMWwtMTYuNiwxLjdjLTAuNC04LTAuOC0xNS4yLTEuMi0yMy4xYzIuOCwwLjQsNS4xLDAuOSw3LjUsMS4xYzQuMywwLjQsOC42LDAuNywxMi45LDAuOGMzLDAsNC4zLDEsNC4xLDQuMSYjMTA7JiM5O2MtMC4yLDIuNiwwLDUuMywwLDhDNDk2LjgsMzIyLjEsNDk0LjQsMzI1LjIsNDkwLjgsMzI1LjlMNDkwLjgsMzI1Ljl6IE01MjQuNSwyODcuNWMtNS4yLDcuOC0xMy42LDEyLTIyLjcsMTQuNCYjMTA7JiM5O2MtMS4xLDAuMS0yLjMsMC4xLTMuNC0wLjFsLTQsMC4yYy0zLjksMC03LjgsMC41LTExLjYtMC4xYy03LjMtMS0xMy43LTQuMS0xOC4yLTEwLjFjLTMuOS01LjMtNC4xLTExLjQtMi45LTE3LjYmIzEwOyYjOTtjMS43LTguNSw4LjktMTYuMywxNi42LTE3LjlsOC4yLTEuMmwxMCwwLjNsMS44LDAuM2wyLjMsMC42YzUuMywxLjgsOS4yLDUuMywxMi4xLDkuOWMzLjMsMy40LDIuMSw3LjMsMC41LDEwLjYmIzEwOyYjOTtjLTQuMiw4LjctMTAuNywxNS0yMC45LDE1LjRjLTUuNCwwLjMtMTAuNy0xLjMtMTQuOS00LjZjLTUuMi00LjEtNC4yLTE1LjQsMS42LTE4LjhjNC42LTIuOSwxMC41LTMsMTUuMS0wLjFjMS43LDEsMy40LDMuNywzLjMsNS41JiMxMDsmIzk7Yy0wLjEsMi40LDAuNCw2LTMuMyw3Yy0yLjMsMC42LTQuMiwzLjUtNy4yLDAuOXMtMy01LjItMi4xLTguOGwtNC40LDMuNGMxLjUsNC4xLDIuOSw4LjEsNy42LDguNGM1LjcsMC40LDExLjMtMS4xLDEzLjgtNi42JiMxMDsmIzk7YzEuMy0yLjgsMC02LjctMC4xLTEwLjFsLTIuNy0zbC0xMC40LTMuNWwtOS45LDAuOWMtMS4xLDEuMi0yLjMsMi4zLTMuNiwzLjNjLTkuNCw3LTguOCwyMSwxLjgsMjYuMmM1LjIsMi41LDExLjMsMy4xLDE3LDQuNiYjMTA7JiM5O2wyLjctMC43YzMuMi0xLjUsNi40LTMsOS43LTQuNWM2LjQtMi45LDkuOC04LjUsMTIuMS0xNC42YzMuNi05LjMtMi4yLTE5LjMtMTMtMjMuNmMtMTEtNC40LTIxLjgtMy42LTMyLjYsMC40JiMxMDsmIzk7Yy0wLjgsMC4zLTEuNiwwLjUtMi40LDAuN2MtMC4xLDAtMC4zLTAuMi0wLjctMC41YzItNC45LDYuMi03LjgsMTAuNy05LjNjMTEuOS00LDI0LjItNC41LDM1LjUsMS40JiMxMDsmIzk7QzUzMy40LDI1NS4yLDUzNi4xLDI3MC4zLDUyNC41LDI4Ny41TDUyNC41LDI4Ny41eiBNODU2LjIsMTQ3LjJsOS41LDMuNmMxLjIsMC40LDIuNSwwLjgsMy43LDEuM2MxLjcsMC43LDMuMywyLjIsNSwyLjImIzEwOyYjOTtjNi43LTAuMiwxMC41LDQsMTUuMSwxMC4yYy0xLjEsMC4zLTIuMSwwLjgtMy4xLDEuNGMtNi4xLDQuOC0xMi4xLDkuNy0xOC4xLDE0LjdjLTEsMC45LTEuOCwxLjgtMi43LDIuOGwtMjEsMTkuNSYjMTA7JiM5O2MtMTguMywxOC40LTM4LjQsMzQuNS01OC41LDUwLjhjLTEyLjQsMTAtMjQuMSwyMC44LTM1LjgsMzEuNmMtOS4xLDguMy0xNy44LDE3LTI2LjYsMjUuN2MtMS43LDEuNi0yLjksMy42LTQuNiw1LjImIzEwOyYjOTtjLTEuNCwxLjItMi45LDIuMi00LjUsMy4yYy0wLjQtNC41LTAuOC04LTEuMS0xMS41Yy0wLjUtNC45LTEtOS44LTEuMy0xNC42Yy0wLjUtOS41LTAuOS0xOS4xLTEuNC0yOC42bC0wLjMtNC42JiMxMDsmIzk7Yy0wLjQtMC45LTAuNi0xLjgtMC44LTIuOGMtMC44LTE1LjQtMS41LTMwLjktMi4zLTQ2LjNjLTAuMS0xLjUsMC4xLTMsMC4yLTQuNWwtMC4yLTIuNWMtMS4yLTcuMi0yLjQtMTQuNS0wLjctMjEuOSYjMTA7JiM5O2M3LjQsNy43LDE2LjIsMTIsMjUuOCwxNS4xYzEuNywwLjUsMi43LDMuMSw0LDQuNnMyLjcsMyw0LDQuNGwtMi4yLTYuMmMwLjQtMC43LDAuOC0xLjksMS4yLTEuOWM0LjIsMCw4LjQsMC4xLDEyLjcsMC4ybDIuNy0wLjQmIzEwOyYjOTtsMi4zLTAuM2M4LjMtMS42LDE2LjEtNC4zLDIyLjgtOS42YzIuMi0xLjcsMy44LTEuNyw1LjMsMC43YzYuNiwxMC40LDE3LjEsMTQuMSwyOC40LDE1LjFjNi42LDAuNiwxMy41LTEuMSwyMC4yLTEuOGwwLjItMC4zJiMxMDsmIzk7bDAuMywwLjJsMi40LTAuN2M3LjItMy43LDE0LjUtNy4yLDIwLjEtMTMuMmMyLjQtMi42LDQuNi01LjUsNi44LTguMmMwLTAuMywwLjItMC41LDAuNC0wLjdsLTAuMS0wLjRsMC40LTAuMSYjMTA7JiM5O2MwLjEtMC43LDAuMi0xLjMsMC41LTEuOWMzLjctNy4yLDMuMy0xNC40LTAuNi0yMS40bC04LjUtN0w4NTYuMiwxNDcuMnogTTc5MC41LDE1OGMxLjcsNy4zLTAuMSwxMi41LTQuNSwxOCYjMTA7JiM5O0M3ODUuMSwxNjkuMiw3ODUuNSwxNjMuNyw3OTAuNSwxNTh6IE04NTUuOSwxNTMuN2M2LjcsNi40LDgsMTIuOSw0LDIxLjJjLTUuOSwxMi40LTE1LjksMjAtMjkuMSwyMy43Yy0xMS4zLDMuMi0yMiwxLjEtMzIuNC0zLjYmIzEwOyYjOTtjLTUuMi0yLjMtOC02LjktMTAuMS0xMS44Yy0wLjUtMS4xLDAuNS0zLDEuMS00LjRjMS44LTQsNC4zLTcuOSw1LjYtMTIuMWMwLjgtMi42LTAuMS01LjgtMC4yLTguOGMtMC4xLTEuNywwLTMuNSwwLjEtNS4ybDEuNCwwLjMmIzEwOyYjOTtjLTAuMSwxMS44LDkuOCwxNCwyMC43LDkuN2M3LjUtMyw5LjMtMTAuNSw0LjEtMTUuOGMtMS40LTEuNC0zLjQtMi40LTUtNEM4MzAuNSwxNDIuNCw4NDQuNiwxNDIuOSw4NTUuOSwxNTMuN0w4NTUuOSwxNTMuN3omIzEwOyYjOTsgTTc5MS4yLDEzNi4yYzMuNC0wLjEsNi44LDAsMTAuMiwwbDAuNCwxLjdsLTUuNSw0LjlsMC44LDEuMmMyLTEuMiw0LjEtMi4yLDUuOS0zLjZjMy44LTIuOCw3LjctNC40LDEyLjItMS40bC0yMS4yLDcuOCYjMTA7JiM5O2MwLjMtMC41LDAuNy0xLjMsMC44LTEuNWMtMi0xLjYtMy44LTMuNC01LjUtNS4yQzc4Ny44LDEzOC4xLDc4OC4zLDEzNi4zLDc5MS4yLDEzNi4yTDc5MS4yLDEzNi4yeiBNNzY4LjIsMTQxJiMxMDsmIzk7Yy0yLjQsMi4xLTUuOCw0LjEtNy44LDdjLTIuNCwzLjQtMiw4LjEsMSwxMS4xYzMuNywzLjksOC43LDQsMTMuNSwyLjVjNS40LTEuNyw5LjItNS4yLDkuNy0xMS40YzMuMywyLjEsMy43LDQsMS40LDcuNCYjMTA7JiM5O2MtMy45LDUuNy00LjQsMTIuNS00LjEsMTkuMmMwLjIsMy42LTEuMiw1LjQtMy43LDcuNGMtMTEuMyw5LjEtMjQuNCwxMS4zLTM4LjUsMTAuMmMtMy41LTAuMy00LjYtMS45LTUtNS40JiMxMDsmIzk7Yy0xLjYtMTYuOSw2LjctMjkuNiwxNy4yLTQxLjRjMS4yLTEuNCwyLjYtMi42LDMuOC0zLjlDNzYwLDEzOS4zLDc2Mi44LDEzOC44LDc2OC4yLDE0MXogTTc1NC4zLDE0MC40JiMxMDsmIzk7Yy0xMy43LDE0LjgtMjQuOCwzMC4zLTIxLjksNTEuOGMtMjEuMy0yLjItMjYuOC0yMC42LTE3LTM0LjlDNzI0LjQsMTQ0LDczOC41LDEzOS44LDc1NC4zLDE0MC40TDc1NC4zLDE0MC40eiBNNzA2LjEsMTQ3LjUmIzEwOyYjOTtjNi0yLjIsMTIuMi00LDE4LjMtNS45bDAuNywxLjVjLTkuMyw1LjQtMTYuNSwxMy43LTIwLjQsMjMuN2MtMC4zLTUtMC45LTEwLjEtMC45LTE1LjFDNzAzLjgsMTUwLjQsNzA0LjksMTQ4LDcwNi4xLDE0Ny41JiMxMDsmIzk7TDcwNi4xLDE0Ny41eiBNODUwLjMsNDQ1LjhjNC44LDMuOCw5LjUsNy44LDE0LjIsMTEuOGM0LDMuNCw0LjEsMy42LDAuOCw3LjVjLTcuNSw4LjgtMTQuOSwxNy45LTIyLjksMjYuMiYjMTA7JiM5O2MtMTMsMTMuNi0yNC42LDI4LjMtMzUuOSw0My4zYy01LjgsNy43LTExLjcsMTUuMy0xNy4zLDIzLjFjLTEuNywyLjMtMi43LDUuMi00LDcuOGgtOTEuMmMtMS44LTguOS03LjctMTUuNi0xMi45LTIyLjQmIzEwOyYjOTtjLTE1LjgtMjAuNy0zMi4yLTQxLTQ4LjEtNjEuN2MtNC4yLTUuNS03LjgtMTEuNS0xMS41LTE3LjRjLTEuNy0yLjYtMS40LTQuOCwxLjItNy40YzE1LjctMTUuOCwzMi40LTMwLjYsNTEuNC00Mi4zJiMxMDsmIzk7YzYuNS00LDEyLjUtOC44LDE4LjYtMTMuNGMzLjQtMi44LDgtMy45LDEyLjMtMi44YzIyLjksNC4zLDQ2LjMsNS42LDY5LjYsMy45YzMuMy0wLjMsNi41LDAuMyw5LjUsMS44JiMxMDsmIzk7QzgwNy4yLDQxNS45LDgyOS43LDQyOS40LDg1MC4zLDQ0NS44eiBNODM1LjUsMzg1LjFjLTMuOSwxLjItNy43LDIuNS0xMS42LDMuNGMtMjcuMyw2LjQtNTQuOCwxMC45LTgzLDkuMiYjMTA7JiM5O2MtMjcuNi0xLjctNTQuNC03LTc5LjMtMTkuNWMtMjQuMS0xMi4yLTQ1LjItMjgtNTguNy01Mi4xYy0zLjQtNi4xLTUuNS0xMy04LjMtMTkuOWM2LjUtMC4yLDguMSwwLjgsMTAuMSw1LjMmIzEwOyYjOTtjMy41LDguMywxMi4zLDExLjksMjIuNiw4LjdjMC4zLDUuNiwyLjUsMTAuMyw3LjYsMTNjNi4xLDMuMSw5LjQtMS44LDEzLjktNS41YzAuMiwzLjMsMC40LDUuOCwwLjUsOC40YzAuMyw2LjIsNC4xLDEwLjEsOSwxMyYjMTA7JiM5O3MxMCwxLjEsMTIuOC0zLjhjMS43LTIuNywzLjEtNS41LDQuMi04LjVjMS4zLTMuOSwzLjgtNC4xLDctMy4xYzYuNSwyLDEzLDQsMTkuNSw1LjljMTMuMiw0LDI2LjQsNy44LDM5LjYsMTEuOCYjMTA7JiM5O2M5LjYsMi45LDE5LjIsNiwyOC44LDljMi44LDAuOSwzLjcsMi4yLDIuMSw1LjFjLTEuNiwyLjktMi43LDYtMy4zLDkuM2MtMC45LDUuMSwyLjYsOSw3LjgsOS4yYzYuNiwwLjMsMTEuNS0zLjcsMTYuNy02LjkmIzEwOyYjOTtjMi4zLTEuNiw0LjUtMy4yLDYuNS01YzEuMSwwLjksMi4yLDEuOCwzLjIsMi44YzMuOCw0LjcsNyw1LjcsMTEuOCwyLjljMi41LTEuNyw1LjgtMS45LDguNS0wLjVjNC4yLDIsOC4yLDQuMiwxMi40LDYuNCYjMTA7JiM5O0w4MzUuNSwzODUuMXogTTg2My40LDM3Ni4xYy0zLjgsMS45LTcuMywwLjctMTAuNC0xLjZjNC4yLTQuOCw4LjQtOS4yLDEyLjItMTMuOWMxLjYtMi4zLDIuOC00LjgsMy42LTcuNWMwLjQtMS4xLTAuNC0yLjYtMC43LTQmIzEwOyYjOTtsLTEuNi0wLjJjLTEuOSwzLjItNCw2LjQtNS43LDkuN2MtNC4yLDcuOS0xMC43LDE0LjItMTguOCwxOGMtMi44LDEuNC01LjksMy04LjgsMC40cy0yLjctNS45LTEuMy05LjJjMi4xLTQuNyw0LjMtOS4zLDYuNS0xNCYjMTA7JiM5O2MwLjgtMS43LDIuNy0zLjUtMC4yLTVjLTIuNi0xLjMtMy4zLDEtNC42LDIuNWMtNC44LDYuMS05LjYsMTIuMi0xNC43LDE4LjFjLTEuNiwxLjctMy41LDMtNS43LDMuOWMtMy4zLDEuNS01LjYtMC4yLTQuNi0zLjYmIzEwOyYjOTtjMS40LTQuNiwzLjItOSw1LjUtMTMuM2MyLjItNC4zLDUtOC4zLDcuMy0xMi41YzAuNy0xLjMsMC44LTMsMS4yLTQuNmMtMy4xLTAuOC00LjgtMC40LTYuMywyLjFjLTcuOSwxMi45LTE3LjgsMjQuNi0yOS4zLDM0LjQmIzEwOyYjOTtjLTMuMiwyLjctNi44LDQuNi0xMS41LDQuM2MtMi4yLTUuNC0wLjQtMTAuMiwyLjEtMTQuN2M1LjctMTAuNiwxNC0xOC45LDIzLjgtMjUuOGM2LjktNC44LDE0LTkuNCwyMS4xLTE0LjFjMS4xLTAuNywyLjMtMS4zLDMuNC0yJiMxMDsmIzk7Yy0zLjEtNC01LjUtMi43LTcuNy0xLjJjLTcuNCw1LjEtMTQuOCwxMC4xLTIxLjksMTUuNmMtNS4xLDQtOS45LDguMy0xNC41LDEyLjhjLTEuMywxLjUtMy41LDItNS4zLDEuMmMtMjAtNi4yLTQwLTEyLjItNjAuMS0xOC4zJiMxMDsmIzk7Yy0xMC42LTMuMi0yMS4zLTYuNS0zMi05LjZjLTMuMS0wLjktNC4xLTIuNi0zLjktNS44YzAuOS0xMS40LTAuOC0yMi42LTMuOC0zMy42Yy0xLTMuNi0xLjktNy41LTcuNS04LjdjMC44LDMuOSwxLjUsNy4zLDIuMywxMC43JiMxMDsmIzk7YzIuNCw5LjksMy41LDIwLDMuMiwzMC4yYy0wLjIsOS4xLTMuNSwxNy4yLTcuNiwyNWMtMi43LDUuMS04LjQsNC44LTEwLjctMC43Yy0xLjQtMy41LTEuOS03LjMtMS40LTExYzEuNy0xMCw0LjItMTkuOCw2LjMtMjkuNyYjMTA7JiM5O2MwLjUtMi40LDMtNS4xLTAuNi03Yy0yLTEtNC40LDEuNy01LjIsNmMtMS42LDktNS42LDE3LTEwLjEsMjQuOWMtMS40LDIuNC0yLjksNS4yLTYuNCw0LjZzLTUuMS0zLjYtNS4xLTYuNiYjMTA7JiM5O2MwLTUuNiwwLjgtMTEuMiwxLjMtMTYuN2MwLjItMS41LDEuMi0yLjksMS4yLTQuM2MwLTEuOC0wLjUtNC43LTEuNC01Yy0yLjUtMC42LTQuOCwwLjItNS43LDMuNGMtMS4yLDQuNS0yLjcsOC45LTQuNSwxMy4yJiMxMDsmIzk7Yy0yLjIsNS4zLTUuNiw1LjktMTAuMSwyLjNjLTQuNy0zLjctNi45LTguNi02LjMtMTQuNWMwLjktOC4xLDMuNi0xNS41LDEwLjMtMjAuOWMzLjYtMi45LDcuMS02LjEsMTAuNS05LjImIzEwOyYjOTtjMC42LTAuOCwxLjEtMS42LDEuNC0yLjVjLTguNS0wLjMtMjQuNCwxNi4xLTI3LjksMjkuMmwtOS42LTIuOGMtMS4xLTEwLjgtMC4zLTIxLjMsMC43LTMxLjljMi40LTI2LjQsMTcuOC00NS44LDM1LTYzLjgmIzEwOyYjOTtjMTcuNy0xOC43LDM4LjEtMzQuMSw2Mi00NC41YzIuMS0wLjksNC4zLTEuNiw3LTIuNmMwLjYsNy4yLDEuMiwxMy43LDEuNiwyMC4zYzEuNywyNS4xLDMuMyw1MC4yLDUsNzUuMyYjMTA7JiM5O2MxLjUsMjIuNiwzLjIsNDUuMiw0LjgsNjcuOGMwLjIsMi41LTAuMSw1LDAuMiw3LjVjMC4zLDEuOCwxLDQuOSwxLjksNWMyLjEsMC4yLDQuMS0wLjUsNS43LTEuOWMzLjUtMy4zLDYuNC03LjIsOS44LTEwLjUmIzEwOyYjOTtjMTguNC0xNy43LDM2LjYtMzUuOCw1NS42LTUyLjhjMTkuNC0xNy40LDM5LjgtMzMuOCw1OS42LTUwLjhjMTUuMy0xMy4xLDMwLjItMjYuNSw0NS41LTM5LjdjNi40LTUuNSw2LjctNS42LDEzLjMtMC4zJiMxMDsmIzk7YzE3LjQsMTMuOCwyOS43LDMwLjksMzYuMiw1Mi40YzYsMTkuOCw1LjgsMzkuNiwyLjEsNTkuN2MtMi44LDE1LjMtNywzMC4xLTE0LjYsNDMuOGMtOCwxNC4yLTE4LjgsMjUuOS0zMi43LDM0LjMmIzEwOyYjOTtDODgyLjcsMzY3LjEsODcyLjksMzcxLjQsODYzLjQsMzc2LjFMODYzLjQsMzc2LjF6IiBjbGFzcz0ic3QwIi8+JiN4YTs8cGF0aCBkPSJNODgzLjIsNTM2Yy0wLjEtMC4xLTAuMy0wLjItMC40LTAuMmwwLDBMODgzLjIsNTM2TDg4My4yLDUzNnoiIGNsYXNzPSJzdDQiLz4mI3hhOzxwYXRoIGQ9Ik00MTYuNCw1NDguN0w0MTYuNCw1NDguN2wwLjMtMC4xTDQxNi40LDU0OC43eiIgY2xhc3M9InN0MyIvPiYjeGE7PHBvbHlnb24gcG9pbnRzPSI0MTAuOSw1NTUuNyA0MTAuOSw1NTUuNCA0MTEuMSw1NTUuNiA0MTEuMSw1NTUuOSIgY2xhc3M9InN0MyIvPiYjeGE7PHBvbHlnb24gcG9pbnRzPSI4MzQuMywyMDIgODM0LjEsMjAyLjIgODMzLjgsMjAyLjEgODM0LDIwMS44IiBjbGFzcz0ic3QzIi8+JiN4YTs8cG9seWdvbiBwb2ludHM9Ijg2NC4zLDE3OC41IDg2NC4zLDE3OC45IDg2NCwxNzkuMSA4NjMuOSwxNzguNyIgY2xhc3M9InN0MyIvPiYjeGE7PHBhdGggZD0iTTExMS41LDEzMi45bC0wLjMtMC4zYzAuMS0wLjEsMC4zLTAuMiwwLjQtMC4yczAuMiwwLjIsMC40LDAuMkwxMTEuNSwxMzIuOXoiIGNsYXNzPSJzdDMiLz4mI3hhOzxwYXRoIGQ9Ik03NDcuMiwyMTcuMmMtMi41LTAuNy01LjQtMC42LTQuMS01YzAuNS0xLjYtMS42LTQtMi42LTYuMWMyLjMsMS42LDMuNSw0LjMsNyw0LjUmIzEwOyYjOTtDNzUwLjQsMjEwLjgsNzUwLjIsMjE0LjUsNzQ3LjIsMjE3LjJ6IiBjbGFzcz0ic3Q2Ii8+JiN4YTs8cGF0aCBkPSJNNDc0LjksNTQ2LjJjLTguOCwxLjItMTcuNS0zLjMtMjUuNC05LjZjLTQuNS0zLjYtNS04LjktNC43LTE0YzAuNS03LjksNC4zLTE0LjcsOS40LTIwLjhjNC4yLTQuOSw5LjctNy41LDE1LjktOSYjMTA7JiM5O2M1LjgtMS41LDEyLTEuMywxNy42LDAuN2M5LjgsMy42LDE2LjEsMTAuNCwyMC4yLDIwLjFjMy41LDguMi0wLjksMjEuMy04LjMsMjUuNkM0OTIuMiw1NDMuNyw0ODMuNiw1NDYuMSw0NzQuOSw1NDYuMnogTTQ3NS42LDUyMCYjMTA7JiM5O2MtOC4zLTAuNy0xNS41LTEuNS0yMi44LTEuOGMtMS4yLDAtMy4zLDEuOS0zLjYsMy4zYy0wLjUsMi4yLTAuNCw0LjYsMC40LDYuN2MzLDguMywxMC4yLDExLjUsMTcuOSwxMy42YzEuNCwwLDIuNi0wLjcsMy4zLTEuOSYjMTA7JiM5O0M0NzIuNCw1MzMuNyw0NzMuOCw1MjcuNSw0NzUuNiw1MjBMNDc1LjYsNTIweiBNNDkyLjgsNTIxTDQ5Mi44LDUyMWMtMi4xLTAuMS00LjMtMC4yLTYuNS0wLjFjLTUuMywwLjQtNi4xLDEuMi03LjMsNi4zJiMxMDsmIzk7Yy0wLjYsMi42LTEuMiw1LjItMS45LDcuN2MtMS40LDUuOCwxLjEsOC43LDcsNy4yYzQuNS0xLjEsOC44LTIuOSwxMi42LTUuNWMzLTIuMiw1LjMtNS45LDYuOS05LjRjMS43LTMuNy0wLjEtNS44LTQuMy02LjEmIzEwOyYjOTtDNDk3LjEsNTIwLjgsNDk0LjksNTIxLDQ5Mi44LDUyMUw0OTIuOCw1MjF6IE01MDMuOSw1MTYuOGMtMy05LjgtOC4yLTE2LjItMTctMTkuNGMtMS44LTAuNi0zLjgtMS41LTQuNSwxLjEmIzEwOyYjOTtjLTEuNiw1LjktMi43LDExLjktMS42LDE4LjNINTAzLjl6IE00NzcuOSw0OTcuNmMtMTEuNC0xLjYtMjIuMyw1LjYtMjQuMiwxNS40YzYuMywzLjUsMTMuNCwyLjUsMjAuMiwzLjJjMC43LDAuMSwyLTEuMywyLjItMi4yJiMxMDsmIzk7QzQ3Ni45LDUwOC42LDQ3Ny40LDUwMy4yLDQ3Ny45LDQ5Ny42TDQ3Ny45LDQ5Ny42eiIvPiYjeGE7PHBhdGggZD0iTTkyLjIsMjE5LjJsLTAuMiwwLjNjLTAuMS0wLjEtMC4xLTAuMi0wLjEtMC40YzAtMC4xLDAuMS0wLjIsMC4yLTAuM0w5Mi4yLDIxOS4yeiIgY2xhc3M9InN0NiIvPiYjeGE7PHBhdGggZD0iTTM3NS41LDIyNC40YzAuMSwxLjEsMC4yLDIuMSwwLjQsMy4yYzAuMiwwLjcsMC41LDEuMywxLDEuOWMwLjQsMC41LDEuNSwxLjIsMS40LDEuNGMtMC40LDAuOS0xLDEuNi0xLjgsMi4xJiMxMDsmIzk7Yy0wLjQsMC4yLTEuNS0wLjQtMi0wLjhjLTMtMi40LDAuMS01LjEtMC43LTcuNkwzNzUuNSwyMjQuNHoiIGNsYXNzPSJzdDciLz4mI3hhOzxwYXRoIGQ9Ik0zNjgsMjM4LjJjMC43LTEuNywxLjYtMy4zLDIuNS00LjljMC4yLTAuMiwxLjksMC42LDIuOCwwLjljLTEsMS43LTIsMy41LTMsNS4yTDM2OCwyMzguMnoiIGNsYXNzPSJzdDciLz4mI3hhOzxwYXRoIGQ9Ik00NDguNCwxMDIuMmMtMTItMjYuOC0zMS4zLTQ3LjQtNTQuNi02NC42QzM3OS40LDI3LDM2NC4yLDE4LDM0Ny4zLDEyYy04LTIuOC0xNS45LTUuOC0yNC41LTUuNCYjMTA7JiM5O2MtMC4yLTAuMS0wLjQtMC4xLTAuNiwwYzAsMC0wLjEsMC4xLTAuMSwwLjJjLTMuMiwwLTYuNywxLjgtOS42LTFMMzA5LDUuOWwtMjQuNC0wLjVsLTMuMSwwLjJjLTguNywxLTE3LjUsMS4zLTI1LjksMy4xJiMxMDsmIzk7Yy04LjgsMS45LTE3LjQsNC45LTI2LDcuOWMtNC42LDEuNi04LjksNC4xLTEzLjMsNi4ySDIxNmMtMSwwLjMtMS45LDAuNi0yLjgsMWMtMTguOSwxMC0zNS40LDIzLjItNTEuMiwzNy40JiMxMDsmIzk7Yy04LjgsNy45LTE3LDE2LjUtMjUuNCwyNC44Yy0zLjUsMy41LTcuMSw2LjktMTAuMiwxMC43Yy05LjQsMTEuNS0xOC40LDIzLjItMjUuOCwzNi4yYy0yLjcsNC43LTIuNyw1LjEsMi43LDcmIzEwOyYjOTtjMTcuOCw2LjQsMzUuNiwxMi44LDUzLjQsMTkuMmM3LDIuNSwxNCw0LjgsMjEuNSw3LjNjMC02LjQsMC4xLTEyLjIsMC0xNy45Yy0wLjEtNC0xLjEtNy42LTYuMy04LjRjMC44LTIuMSwxLjUtMy42LDIuMi01LjRsNS41LDMmIzEwOyYjOTtjLTAuMiwxLjUtMSwzLTAuNiwzLjljMy4zLDcuNCwzLjYsMTUuMSwzLjIsMjIuOWMtMC4xLDIuNCwwLjYsMy45LDMuMyw0LjdjNC44LDEuNCw5LjQsMy40LDE0LjIsNC44YzQuMiwxLjIsOC4zLDMuOSwxMi45LDEuNSYjMTA7JiM5O2w0LjMtMS4xbDIzLjYtMi43bDMuNC0wLjVjMC4yLTAuNCwwLjYtMC44LDAuOS0xLjFjLTAuNCwwLjMtMC43LDAuNy0wLjksMS4xYzMuMywwLDYuNi0wLjEsOS45LDBjMywwLjEsNS43LDAuMSw4LjItMi4zJiMxMDsmIzk7YzEuMS0xLjEsNC43LTEuNCw1LjctMC40YzMuNiwzLjMsNy44LDMuMiwxMi4xLDNsMC4zLDAuMmwzLjctMC4zYzAsMC41LDAsMSwwLDEuNWwtMy43LTAuNGwtNC45LDAuNWMtMC4yLTAuMS0wLjMtMC4xLTAuNS0wLjEmIzEwOyYjOTtjLTUuOCwwLjktMTEuNSwwLjYtMTcuMywwLjZjLTExLjYsMC4xLTIzLjEsMi4yLTM0LjYsMy43Yy0yLjYsMC41LTUuMSwxLjEtNy42LDEuOWMyLjUsMS4yLDMuOCwyLDUuMSwyLjUmIzEwOyYjOTtjMjguOSwxMC4yLDU3LjksMjAuMyw4Ni43LDMwLjdjNi45LDIuNSwxMi4zLDIuNSwxOC41LTIuN2M3LjYtNi40LDE2LjQtMTEuNCwyNS0xNi40YzQuNS0yLjYsOS43LTQsMTQuNi01LjlsMS4zLDEuMyYjMTA7JiM5O2MtMC40LDAuNy0wLjYsMS44LTEuMSwyLjFjLTcuOSw0LjUtMTUuOSw4LjctMjMuNywxMy40Yy01LjMsMy4yLTEwLjIsNy4yLTE1LjMsMTAuOGwtMS4zLDEuMmMtMTAuMiwxMC44LTE5LjUsMjIuMi0yMC45LDM4LjEmIzEwOyYjOTtjMi42LTAuNCw0LjktMSw2LjQtMi40YzUuOS01LjQsMTEuNy0xMC44LDE3LjEtMTYuNmMyLjUtMi42LDUuNy01LjMsNC45LTkuOGM0LjktMS45LDcuNy01LjcsOS4yLTEwLjZoMC4xYzEuNy0xLjUsMy4zLTMuMSw0LjgtNC45JiMxMDsmIzk7YzIuMi0yLjksNC42LTMuMiw3LjktMS43Yy0wLjIsMS0wLjYsMi0xLDIuOWMtNC45LDguNC05LjUsMTctMTIuNCwyNi40Yy0xLjUsNC42LTAuMiw4LjIsMi4yLDEyLjZjOS41LTcuNiwxNi0xNi40LDE5LTI3LjZsMC4yLTAuMyYjMTA7JiM5O2w2LjEtMC42YzAsMS45LTAuMSwzLjctMC4zLDUuNmMtMC40LDEuMS0wLjksMi4xLTEuNSwzLjFjLTAuOSwxLjktMi4zLDMuOC0yLjUsNS44czAuMyw0LjgsMS42LDUuOHM0LjUsMC44LDUuOS0wLjImIzEwOyYjOTtjMy42LTIuNSw3LjctNS4zLDkuNy04LjljMy40LTYuMiw1LjItMTMuMiw3LjktMTkuN2MwLjUtMS4xLDItMS43LDMtMi42YzAuNywwLjksMi4xLDEuOSwyLDIuOGMtMC4zLDMuMS0wLjgsNi4xLTEuNCw5LjFsLTMuOCw5LjMmIzEwOyYjOTtsLTMuNyw2LjhjNy44LDAuNywxMS00LjMsMTUtNy43YzAuMy0wLjEsMC42LTAuMywwLjctMC42YzYtNSwxMi4xLTkuNywxNy45LTE0LjljMTQuOS0xMy4zLDI3LjMtMjguNywzNC4zLTQ3LjYmIzEwOyYjOTtjMy04LjEsNC43LTE2LjUsNS4yLTI1LjFDNDU5LjUsMTI4LDQ1NC4xLDExNSw0NDguNCwxMDIuMnogTTExMS41LDEzMi45bC0wLjMtMC4zYzAuMS0wLjEsMC4zLTAuMiwwLjQtMC4yczAuMiwwLjIsMC40LDAuMiYjMTA7JiM5O0wxMTEuNSwxMzIuOXogTTM3MC40LDIzOS40bC0yLjQtMS4yYzAuNy0xLjcsMS42LTMuMywyLjUtNC45YzAuMi0wLjIsMS45LDAuNiwyLjgsMC45QzM3Mi40LDIzNiwzNzEuNCwyMzcuNywzNzAuNCwyMzkuNHomIzEwOyYjOTsgTTM3Ni42LDIzM2MtMC40LDAuMi0xLjUtMC40LTItMC44Yy0zLTIuNCwwLjEtNS4xLTAuNy03LjZsMS42LTAuMmMwLjEsMS4xLDAuMiwyLjEsMC40LDMuMmMwLjIsMC43LDAuNSwxLjMsMSwxLjkmIzEwOyYjOTtjMC40LDAuNSwxLjUsMS4yLDEuNCwxLjRDMzc4LDIzMS43LDM3Ny40LDIzMi41LDM3Ni42LDIzM0wzNzYuNiwyMzN6IiBjbGFzcz0ic3Q4Ii8+JiN4YTs8cGF0aCBkPSJNMzU3LjYsMjQ0LjVjLTMuOCwyLjktNyw1LjUtMTAuMiw4Yy0zLDIuMi04LjEsMi41LTEwLjksMC42Yy0zLjEtMi4zLTMuMy01LjQtMi40LTguOWMwLjgtMi45LDEuMi01LjgsMS44LTguOSYjMTA7JiM5O2MtMC44LDAuMS0xLjMsMC0xLjUsMC4yYy0wLjcsMC43LTEuMywxLjUtMiwyLjJjLTcsNi44LTE0LDEzLjctMjEuMiwyMC4yYy0yLjgsMi43LTcuMSwyLjgtMTAuMSwwLjRjLTMtMi4zLTQuNC01LjYtMy05LjMmIzEwOyYjOTtjMi41LTYuNCw1LjQtMTIuNyw4LjItMTljMS4xLTIuNiwyLjUtNSw0LTcuOWMtMTAtMy40LTE5LTYuMi0yNy45LTkuNGMtMjIuNy04LTQ1LjMtMTYuMy02OC0yNC4yYy05LjItMy4yLTE4LjYtOC4zLTI4LjYtMi4xJiMxMDsmIzk7Yy0wLjEsMC4xLTAuMywwLjEtMC41LDAuMWwtMTMuMyw1LjZjOC44LTAuNCwxNi41LTEsMjQuMi0xYzExLjktMC4xLDIzLjUsNCwzMi44LDExLjZjMTMuNiwxMS4xLDE3LjksMjIuNiw5LjYsMzkuNSYjMTA7JiM5O2MtOC4yLDE2LjYtMjMuNSwyMy40LTQwLjIsMjcuMmMtMTUuNSwzLjUtMzAuNSwwLjQtNDQuNC03Yy05LjctNS4xLTE3LjktMTEuNi0xOC44LTIzLjhjLTAuMi0xLjItMC42LTIuNC0xLTMuNSYjMTA7JiM5O2MtMi40LDAuMi00LjgtMC4yLTYuNiwwLjdjLTkuNiw0LjgtMTkuOCw1LjEtMzAuMiw0LjZjLTE3LjItMC45LTMxLjgtNi4yLTM5LTI0LjljLTEuOCwzLjctMy40LDYuNS00LjYsOS41JiMxMDsmIzk7Yy04LjMsMjAuMi0xNi45LDQwLjQtMjQuOCw2MC44Yy00LDEwLjUtOC4yLDIxLjMtOS45LDMyLjNjLTMuNCwyMi44LTUuMiw0NS45LTcuNiw2OC45Yy0wLjksOC44LTEuOSwxNy41LTIuOCwyNi4zJiMxMDsmIzk7Yy0wLjQsNC4yLTAuOCw4LjMtMS4zLDEzLjVjMS0wLjUsMS45LTEuMSwyLjgtMS44YzkuMS05LjcsMTcuOC0xOS43LDI3LjMtMjguOWM3LjEtNy4xLDE0LjktMTMuNiwyMy4yLTE5LjQmIzEwOyYjOTtjMTkuMS0xMi45LDQwLjMtMjEuOCw2MS4xLTMxLjZjMTYuOC04LDM0LTE1LjIsNTAuNC0yNGMxNi4yLTguNiwzMS4xLTE5LjEsNDMuNS0zMi45YzEyLjEtMTMuNSwyMi41LTI4LDI5LjgtNDQuNiYjMTA7JiM5O2MxLTIuMywxLjgtNC45LDQuNS00LjFjMS45LDAuOCwzLjMsMi42LDMuNiw0LjZjMC4zLDYuMSwwLjgsMTIuNC0wLjUsMTguMmMtMy40LDE1LjQtNy41LDMwLjYtMTEuNiw0NS45JiMxMDsmIzk7Yy0zLjcsMTMuNi04LjMsMjctMTEuNSw0MC43Yy0zLjksMTYuNS02LjgsMzMuMi0xMCw0OS44Yy0wLjIsMC44LDAuMiwxLjcsMC42LDMuOGM0LjYtNS41LDguNy05LjgsMTIuMi0xNC42JiMxMDsmIzk7YzExLTE1LDIxLjgtMzAuMSwzMi42LTQ1LjNjMi4zLTMuMiw0LjUtNi41LDYuOC05LjhjNS45LTcuNSwxMS45LTE0LjksMTcuNi0yMi42YzIuNC0zLjMsNC4zLTcsNi40LTEwLjVjLTAuMi0wLjItMC40LTAuNC0wLjYtMC41JiMxMDsmIzk7bDAsMGMwLjIsMC4yLDAuNCwwLjQsMC42LDAuNWMzLjItNC40LDYuMi04LjksOS43LTEzLjFjMi4yLTIuNyw0LjctNS42LDcuNy03LjNjMy45LTIuMSw4LjQtMy4xLDEyLjYtNC41JiMxMDsmIzk7YzE2LTUuMywzMS4xLTEyLjgsNDQuOS0yMi40YzEtMC43LDEuMy0yLjQsMi4yLTQuM0MzNjYuOCwyNDguMiwzNjEuMywyNDkuMSwzNTcuNiwyNDQuNXoiIGNsYXNzPSJzdDgiLz4mI3hhOzxwYXRoIGQ9Ik0yOS44LDE1MC42YzE0LjMtMi42LDI0LjgtMTEuMywzNC0yMmMyLjQtMi45LDQuNy01LjksNy04LjhjMC40LTAuNSwwLjktMS40LDEuMy0xLjRjMS42LTAuMSwzLjYtMC40LDQuOCwwLjMmIzEwOyYjOTtjMC42LDAuNCwwLjcsMy4xLDAsNC4yYy0yLjIsMy42LTQuOSw2LjktNy40LDEwLjRjLTMuMSw0LjYtNi40LDkuMS05LjMsMTMuOGMtMC41LDAuOC0wLjUsMi45LDAuMiwzLjRjMS4xLDAuNywyLjQsMC44LDMuNSwwLjImIzEwOyYjOTtjMy4xLTIuNiw1LjktNS41LDguOC04LjRjMS40LTEuMSwzLTIsNC4xLTMuNGMyLjItMi45LDQuMi01LjksNi05YzEuOC0zLDQtNC42LDcuNi0zLjljMCwwLjIsMC4yLDAuMywwLjQsMC4zJiMxMDsmIzk7Yy0wLjUsMi4yLTAuNSw0LjctMS42LDYuNmMtNCw3LjYtOC4zLDE1LjEtMTIuMywyMi43Yy0wLjgsMS44LTEuNCwzLjgtMS44LDUuN2wxLjcsMC45YzEuMy0xLjQsMi41LTMsMy41LTQuNiYjMTA7JiM5O2M4LjMtMTYuNywxNy40LTMyLjgsMjkuOC00N2MzLTMuNCw1LjgtNy4xLDguNy0xMC42Yy0yLjYtMC4yLTUuMSwwLjEtNy41LDFjLTExLjMsMy45LTIyLjUsOC0zMy44LDExLjljLTE0LjgsNS4xLTI5LDExLjMtNDEsMjEuOCYjMTA7JiM5O2MtNC45LDQuNC05LjgsOC44LTEzLjIsMTUuN0MyNS44LDE1MC42LDI3LjksMTUxLDI5LjgsMTUwLjZ6IiBjbGFzcz0ic3Q4Ii8+JiN4YTs8cGF0aCBkPSJNOTEuMSwxNDkuMWMtMy4xLDYtNi41LDExLjktOS42LDE3LjljLTAuNywxLjQtMC45LDMtMS42LDUuNmMzLTAuNSw1LjEtMC42LDctMS4yYzguNy0yLjUsMTcuMy00LjgsMjYuNS00JiMxMDsmIzk7YzQuOSwwLjQsOS45LDEuMSwxNC44LDEuN2M5LjIsMS4xLDE4LDMuOSwyNS4xLDkuOGMzLjgsMy4xLDguMyw1LjMsMTMuMSw2LjNjMi41LDAuNiw0LjIsMC40LDUuNC0yYzAuOS0xLjYsMS45LTMuMSwyLjgtNC43JiMxMDsmIzk7YzEuNi0yLjYsMC40LTQtMi00LjljLTEwLjQtMy44LTIwLjktNy41LTMxLjQtMTEuMmMtMTQuNy01LjItMjkuNi0xMC4xLTQ0LjItMTUuNEM5My45LDE0NS44LDkyLjUsMTQ2LjQsOTEuMSwxNDkuMXoiIGNsYXNzPSJzdDgiLz4mI3hhOzxwYXRoIGQ9Ik0xNzcsMTg1LjVsMTMuNC00LjRDMTgwLjgsMTc1LDE3OC43LDE3NS44LDE3NywxODUuNXoiIGNsYXNzPSJzdDgiLz4mI3hhOzxwYXRoIGQ9Ik00OTIuOCw1MjFjMi4yLDAsNC4zLTAuMSw2LjUsMGM0LjIsMC4zLDYsMi40LDQuMyw2LjFjLTEuNiwzLjUtMy45LDcuMi02LjksOS40Yy0zLjgsMi42LTguMSw0LjUtMTIuNiw1LjUmIzEwOyYjOTtjLTUuOSwxLjUtOC40LTEuMy03LTcuMmMwLjYtMi42LDEuMi01LjIsMS45LTcuN2MxLjItNSwyLjEtNS45LDcuMy02LjNDNDg4LjQsNTIwLjgsNDkwLjYsNTIwLjksNDkyLjgsNTIxTDQ5Mi44LDUyMXoiIGNsYXNzPSJzdDkiLz4mI3hhOzxwYXRoIGQ9Ik00NzcuOSw0OTcuNmMtMC42LDUuNi0xLjEsMTEtMS44LDE2LjRjLTAuMSwwLjgtMS41LDIuMi0yLjIsMi4yYy02LjgtMC42LTEzLjksMC4zLTIwLjItMy4yJiMxMDsmIzk7QzQ1NS43LDUwMy4yLDQ2Ni42LDQ5NS45LDQ3Ny45LDQ5Ny42eiIgY2xhc3M9InN0OSIvPiYjeGE7PC9zdmc+;" vertex="1" parent="1">
          <mxGeometry x="190" y="10" width="420" height="250" as="geometry" />
        </mxCell>
      </root>
    </mxGraphModel>
  </diagram>
</mxfile>
